<?xml version="1.0" encoding="utf-8"?>
<!-- Generator: Adobe Illustrator 24.3.0, SVG Export Plug-In . SVG Version: 6.00 Build 0)  -->
<svg version="1.1" id="Layer_1" xmlns="http://www.w3.org/2000/svg" xmlns:xlink="http://www.w3.org/1999/xlink" x="0px" y="0px"
	 viewBox="0 0 466 138.7" style="enable-background:new 0 0 466 138.7;" xml:space="preserve">
<style type="text/css">
	.st0{fill:#FFFFFF;}
	.st1{fill:#BF2F38;}
	.st2{fill:#ABADB0;}
	.st3{fill:#00578E;}
	.st4{fill:#0078A9;}
	.st5{fill:#559534;}
</style>
<g>
	<path class="st0" d="M158.1,39h11.2v2.1h-3.6v13c0,6.2,3,8.9,6.8,8.9c3.6,0,6.8-2.2,6.8-9.2V41.1h-3.5V39h10.6v2.1h-3.5v13.3
		c0,6.9-3.8,10.7-10.6,10.7c-6.4,0-10.8-2.9-10.8-11.5V41.1H158L158.1,39L158.1,39z M190.3,62.3c0,1.5-1.2,2.7-2.7,2.7
		s-2.7-1.2-2.7-2.7s1.2-2.7,2.7-2.7S190.3,60.8,190.3,62.3z M195.7,56.9h2.1v3.3c1.7,2,3.4,2.9,5.2,2.9c2.4,0,4.3-1.8,4.3-4.1
		c0-4.3-5.9-5.2-9.4-8.6c-1.7-1.7-2.3-3.4-2.3-5.2c0-3.4,2.8-6.6,7.3-6.6c1.8,0,3.5,0.3,5,1.3v-1.4h2.1v7h-2.1v-2.8
		c-1.1-1.4-2.7-2.2-4.5-2.2c-2.9,0-4.1,1.7-4.1,3.7c0,4,5.9,4.6,9.5,8.3c1.6,1.6,2.2,3.1,2.2,5.2c0,4.4-3.1,7.4-7.7,7.4
		c-2,0-3.5-0.6-5.4-1.8v1.9h-2.2V56.9L195.7,56.9z M219.2,62.3c0,1.5-1.2,2.7-2.7,2.7s-2.7-1.2-2.7-2.7s1.2-2.7,2.7-2.7
		S219.2,60.8,219.2,62.3z M251.4,62c-2.5,2.1-5.6,3.1-9.3,3.1c-7.7,0-13-5.8-13-13c0-7.8,5.6-13.6,13.4-13.6c2.1,0,4.2,0.4,6.2,1.1
		l0.3-1.5h1.6v7.5h-1.9c-0.7-3.2-3-5-6.3-5c-4.9,0-8.2,4.3-8.2,10.9c0,6.9,3.7,11.5,9.3,11.5c2.5,0,5-0.9,8-3.1V62H251.4z
		 M252.9,46.7h7.2V59c0,2.3,1.2,3.7,3.2,3.7c1.2,0,2.7-0.6,4.4-1.8V48.5h-3.2v-1.8h7.1v16.1h3.2v1.8h-7.1v-2.1
		c-2.2,1.9-4.3,2.6-6.4,2.6c-3.2,0-5.1-1.8-5.1-5.5V48.4H253L252.9,46.7L252.9,46.7z M277,59.1h0.9c0.6,2.7,2.6,4.3,4.7,4.3
		c1.9,0,3.2-0.9,3.2-2.4c0-2.8-4.2-2.8-7.2-5.8c-1.2-1.2-1.7-2.5-1.7-3.8c0-2.9,2.6-5.3,5.9-5.3c1.2,0,2.1,0.3,3.6,1v-1h1.3v4.8h-1
		c-0.5-1.9-1.9-3-3.7-3c-1.5,0-2.7,1-2.7,2.3c0,2.5,4.6,3.3,7.4,6c1,1,1.5,2.2,1.5,3.5c0,3.1-2.5,5.3-6.1,5.3
		c-1.7,0-2.7-0.3-4.6-1.3l-0.3,1.2H277L277,59.1L277,59.1z M290.6,48.4l6.4-6.6v4.9h5v1.8h-5v10.4c0,2.8,0.8,4.1,2.4,4.1
		c1.7,0,2.6-1.4,3-1.4c0.3,0,0.4,0.3,0.4,0.6c0,0.5-1.6,2.9-4.7,2.9c-3.2,0-5-2.1-5-5.9V48.5h-2.5L290.6,48.4z M308.9,55.6
		c0-4.8,2-7.7,5.4-7.7s5.4,2.9,5.4,7.7s-2,7.7-5.4,7.7S308.9,60.5,308.9,55.6z M304.5,55.6c0,5.3,4.3,9.4,9.8,9.4s9.8-4.1,9.8-9.4
		c0-5.3-4.3-9.5-9.8-9.5C308.8,46.2,304.5,50.3,304.5,55.6z M326.3,62.8h3.2V48.4h-3.2v-1.8h7.1v2c2.7-1.4,4.8-2.6,7.1-2.6
		c2.1,0,3.7,1.1,4.4,3c1.8-1.4,4.8-3,7.2-3c3.3,0,5.1,2.1,5.1,6v10.6h3.1v1.8h-10.1v-1.8h3v-9.5c0-3.1-1.1-4.5-3.3-4.5
		c-1.3,0-3.1,0.8-4.7,1.9v12.1h3.1v1.8h-10v-1.8h3v-8.9c0-3-0.4-5.1-3.2-5.1c-1.6,0-2.7,0.7-4.7,1.9v12.1h3v1.8h-10.1V62.8z
		 M362.6,59.1h0.9c0.6,2.7,2.6,4.3,4.7,4.3c1.9,0,3.2-0.9,3.2-2.4c0-2.8-4.2-2.8-7.2-5.8c-1.2-1.2-1.7-2.5-1.7-3.8
		c0-2.9,2.7-5.3,5.9-5.3c1.2,0,2.1,0.3,3.6,1v-1h1.3v4.8h-1c-0.5-1.9-1.9-3-3.7-3c-1.5,0-2.7,1-2.7,2.3c0,2.5,4.6,3.3,7.4,6
		c1,1,1.5,2.2,1.5,3.5c0,3.1-2.5,5.3-6.1,5.3c-1.7,0-2.7-0.3-4.6-1.3l-0.3,1.2h-1.2L362.6,59.1L362.6,59.1z M386.3,49.1
		c2.1-1.9,4.7-2.9,6.8-2.9c3.5,0,5.6,2.4,5.6,6.3v7.3c0,1.8,0.8,2.9,1.8,2.9c0.3,0,1.5-0.2,1.8-0.3v1.2c-1.3,0.9-2.7,1.5-3.9,1.5
		c-1.4,0-2.3-0.8-3.2-2.7c-2.1,1.6-3.7,2.7-5.2,2.7c-2.4,0-4.1-2.1-4.1-4.7s1.5-4.1,5-5l3.9-1V52c0-2.1-0.6-3.6-3-3.6
		c-1.4,0-2.9,0.6-5,1.9L386.3,49.1L386.3,49.1z M389.5,59.9c0,1.4,1,2.4,2.3,2.4c0.9,0,1.8-0.4,2.9-1.3v-4.8
		C391,57,389.5,58.1,389.5,59.9L389.5,59.9z M403.5,62.8h3.3V48.4h-3.3v-1.8h7.2v2c2.1-1.5,4.2-2.5,6.6-2.5c2.8,0,4.9,1.8,4.9,5.2
		v11.4h3.2v1.7h-9.9v-1.7h2.8V52.2c0-2.4-1.3-3.7-3.2-3.7c-1.3,0-3,0.7-4.4,1.9v12.4h3v1.7h-10.1v-1.7L403.5,62.8z M439.6,62.8h-1.7
		c-4.2,0-7.3-2-7.3-7.5c0-4.4,1.8-6.9,4.8-6.9c1.4,0,2.9,0.7,4.2,2V62.8z M436.5,38.2h3.2v10.3c-1.7-1.5-3.6-2.3-5.4-2.3
		c-4.3,0-8,4.1-8,9.2c0,5.6,4,9.2,10.2,9.2h10.2v-1.7h-3.2V36.5h-7.1v1.7H436.5z M165.7,99.9v-9.8h2.3c4.9,0,6.3,2.5,6.3,5
		c0,2.4-1.4,4.8-5.4,4.8H165.7z M158.1,102h12.2c5.3,0,8.6-2.7,8.6-6.9c0-3.2-2.4-5.9-7.1-6.5v-0.1c2.9-0.8,4.7-3,4.7-5.8
		c0-2.7-2.1-6.3-8.9-6.3h-9.7v2.1h3.4v21.3h-3.4v2.2L158.1,102z M165.7,88v-9.4h1.3c3.3,0,5,1.5,5,4.6c0,3.2-1.4,4.8-4.8,4.8H165.7z
		 M185.8,93.1c0-4.8,2.1-7.7,5.4-7.7c3.4,0,5.4,2.9,5.4,7.7c0,4.8-2,7.7-5.4,7.7C187.9,100.8,185.8,97.9,185.8,93.1z M181.4,93.1
		c0,5.3,4.3,9.5,9.8,9.5s9.8-4.1,9.8-9.5c0-5.3-4.3-9.4-9.8-9.4C185.8,83.7,181.4,87.8,181.4,93.1z M202.5,100.3h3.2V85.9h-3.2v-1.8
		h7.1v3h0.1c2.1-2.6,3.2-3.5,4.4-3.5c1.1,0,2,0.5,3,1.7c-0.3,1.8-0.9,3.3-1.6,4.4c-1-1.9-1.6-2.5-2.8-2.5s-2.1,0.8-3,2.1v10.9h3.2
		v1.8h-10.4V100.3z M232.4,100.3h-1.7c-4.2,0-7.3-2-7.3-7.5c0-4.4,1.8-6.9,4.8-6.9c1.4,0,2.9,0.7,4.2,2V100.3z M229.3,75.6h3.2v10.3
		c-1.8-1.5-3.6-2.3-5.4-2.3c-4.3,0-8,4.1-8,9.2c0,5.6,4,9.2,10.2,9.2h10.3v-1.8h-3.2V73.8h-7.1L229.3,75.6L229.3,75.6z M244.8,89.9
		c0.3-3,1.2-4.5,3.6-4.5c2.3,0,3.7,1.6,4,4.5H244.8z M256.6,91.7c-0.7-5.2-3.5-8-8-8c-4.9,0-8.1,3.5-8.1,8.9c0,5,3.3,10,9.4,10
		c2.4,0,3.8-0.5,6.7-2.3l0.3-1.9c-2.2,1.4-4.1,2.1-6,2.1c-3.8,0-6.2-3.6-6.2-8.7h11.9L256.6,91.7z M258.6,100.3h3.2V85.9h-3.2v-1.8
		h7.1v3h0.1c2.1-2.6,3.2-3.5,4.4-3.5c1.1,0,2,0.5,3,1.7c-0.3,1.8-0.9,3.3-1.6,4.4c-1-1.9-1.6-2.5-2.8-2.5c-1.2,0-2.1,0.8-3,2.1v10.9
		h3.2v1.8h-10.3v-1.7H258.6z"/>
	<g>
		<path class="st0" d="M294.2,78.6h0.9c4,0,6.2,2,6.2,5.5c0,3-1.8,4.8-4.5,4.8c-0.9,0-1.7-0.1-2.7-0.4v-9.9H294.2z M286.5,102h11.2
			v-2.1h-3.6v-9.2c1.1,0.3,2.7,0.6,3.8,0.6c4.7,0,7.9-3,7.9-7.3c0-4.1-2.9-7.6-9.2-7.6h-10.1v2.1h3.5v21.3h-3.5L286.5,102L286.5,102
			z M308.1,100.3h3.2V85.9h-3.2v-1.8h7.1v3h0.1c2.1-2.6,3.2-3.5,4.4-3.5c1.1,0,2,0.5,3,1.7c-0.3,1.8-0.9,3.3-1.6,4.4
			c-1-1.9-1.6-2.5-2.8-2.5c-1.2,0-2.1,0.8-3,2.1v10.9h3.2v1.8h-10.4L308.1,100.3L308.1,100.3z M328.7,93.1c0-4.8,2.1-7.7,5.4-7.7
			c3.4,0,5.4,2.9,5.4,7.7c0,4.8-2,7.7-5.4,7.7S328.7,97.9,328.7,93.1z M324.3,93.1c0,5.3,4.3,9.5,9.8,9.5s9.8-4.1,9.8-9.5
			c0-5.3-4.3-9.4-9.8-9.4S324.3,87.8,324.3,93.1z M345.4,85.9l6.4-6.6v4.9h5V86h-5v10.4c0,2.8,0.8,4.2,2.4,4.2c1.7,0,2.6-1.4,3-1.4
			c0.3,0,0.4,0.3,0.4,0.6c0,0.5-1.6,3-4.7,3c-3.2,0-5-2.1-5-5.9V86.2h-2.5L345.4,85.9z M363.7,89.9c0.3-3,1.2-4.5,3.6-4.5
			c2.3,0,3.7,1.6,4,4.5H363.7z M375.5,91.7c-0.7-5.2-3.5-8-8-8c-4.9,0-8.1,3.5-8.1,8.9c0,5,3.3,10,9.4,10c2.4,0,3.8-0.5,6.7-2.3
			l0.3-1.9c-2.1,1.4-4.1,2.1-5.9,2.1c-3.8,0-6.2-3.6-6.2-8.7h11.8L375.5,91.7z M392.8,89.3h-1.2c-0.5-2.6-2.4-3.9-4.3-3.9
			c-2.9,0-4.8,2.1-4.8,6.7c0,5.3,2,8.1,5.7,8.1c2.9,0,4.6-2,5-2c0.3,0,0.6,0.8,0.6,1.1c0,0.7-3,3.3-7,3.3c-5,0-8.8-4.3-8.8-9.9
			c0-5.3,3.6-9,8.6-9c1.5,0,2.6,0.3,4.6,1.1l0.3-1.1h1.2L392.8,89.3L392.8,89.3z M395.4,85.9l6.4-6.6v4.9h5V86h-5v10.4
			c0,2.8,0.8,4.2,2.4,4.2c1.7,0,2.6-1.4,3-1.4c0.3,0,0.4,0.3,0.4,0.6c0,0.5-1.6,3-4.7,3c-3.3,0-5.1-2.1-5.1-5.9V86.2h-2.4
			L395.4,85.9z M409.3,100.3h3.1V85.9h-3.1v-1.8h7.1v16.1h3v1.8h-10.1V100.3z M416.4,77.8c0,1.3-1.1,2.4-2.4,2.4s-2.4-1.1-2.4-2.4
			s1.1-2.4,2.4-2.4S416.4,76.5,416.4,77.8z M425.5,93.1c0-4.8,2.1-7.7,5.4-7.7c3.4,0,5.4,2.9,5.4,7.7c0,4.8-2,7.7-5.4,7.7
			C427.6,100.8,425.5,97.9,425.5,93.1z M421.1,93.1c0,5.3,4.3,9.5,9.8,9.5s9.8-4.1,9.8-9.5c0-5.3-4.3-9.4-9.8-9.4
			S421.1,87.8,421.1,93.1z M441.2,100.3h3.3V85.9h-3.3v-1.8h7.2v2c2.1-1.5,4.2-2.5,6.6-2.5c2.8,0,4.9,1.8,4.9,5.2v11.4h3.2v1.8h-9.9
			v-1.8h2.8V89.7c0-2.4-1.3-3.7-3.2-3.7c-1.3,0-3,0.7-4.4,1.9v12.4h2.9v1.8h-10.1V100.3z"/>
	</g>
	<g>
		<path class="st0" d="M69.7,2.3C32.6,2.3,2.5,32.4,2.5,69.5s30.1,67.2,67.2,67.2s67.2-30.1,67.2-67.2C137,32.4,106.9,2.3,69.7,2.3
			L69.7,2.3z"/>
		<path class="st1" d="M110.6,45.3c-0.8,0.3-1.5,0.5-2.2,0.6c4.2,6.9,6.6,14.9,6.6,23.5c0,25-20.2,45.2-45.2,45.2
			S24.6,94.4,24.6,69.4c0-9,2.6-17.4,7.2-24.4c-0.7-0.2-1.4-0.5-2.1-0.8c-4.6,7.3-7.3,16-7.3,25.2c0,26.2,21.2,47.4,47.4,47.4
			s47.4-21.2,47.4-47.4C117.2,60.7,114.8,52.4,110.6,45.3L110.6,45.3z M43.5,32.7c7.4-5.3,16.5-8.4,26.3-8.4
			c10.9,0,21,3.9,28.8,10.4c0.9-0.3,1.7-0.5,2.6-0.7c-8.4-7.4-19.4-11.9-31.4-11.9C59,22.1,49,25.7,41,31.8c0.4,0.1,0.8,0.3,1.1,0.4
			C42.6,32.4,43,32.5,43.5,32.7z"/>
		<path class="st2" d="M69.7,2.3C32.6,2.3,2.5,32.4,2.5,69.5s30.1,67.2,67.2,67.2s67.2-30.1,67.2-67.2C137,32.4,106.9,2.3,69.7,2.3
			L69.7,2.3z M69.8,132.6c-34.9,0-63.1-28.3-63.1-63.1S34.9,6.4,69.8,6.4c34.8,0,63.1,28.2,63.1,63.1
			C132.8,104.3,104.6,132.6,69.8,132.6z"/>
		<path class="st3" d="M53.5,56c-1-0.5-1.8-1.1-2.7-1.9c-2.9-2.6-3.6-5.4-2.7-8.6c0.5-1.9,1.3-2.8,1-4.8c-0.2-1.1-1-2-1.8-2.8
			c-1.9-1.9-4.2-3-7.6-4.1c-2.1-0.7-8.2-2.6-10.8-5c-0.6,1.8,0.7,4.2,2.2,4.5c-1.4,0.1-2.5,0.8-3.1,1.6c1,1.2,3.1,2.4,4.8,2.5
			c-0.8,0.5-1.7,1.6-2.1,2.3c1.5,0.8,3.8,1.4,5.6,1.3c-0.8,0.6-1.4,1.4-1.8,2.1c1.2,0.6,3.6,1.4,5.8,1.5c-0.8,0.4-2,1.8-2.6,2.7
			c1.3,0.6,4,0.9,5.7,1.1c-1.2,0.6-2.5,1.9-3.2,3.1c1.2,0.6,3.6,1.3,5.5,1.2c-0.9,0.9-1.6,2-1.9,3c1.4,0.3,3,0.3,4.7,0.1
			c-1.1,1.3-1.5,3.1-1.6,4.4c1.4,0,3.3-0.4,4.7-1.2c-0.3,1.1-0.2,2.6,0.2,3.6c0.6-0.1,1.2-0.4,1.9-0.7C53.7,59.8,53.6,57.7,53.5,56
			L53.5,56z M111.5,32.1c-2.7,2.4-7,3.1-11.5,4.6c-3.4,1.1-5.5,1.8-8.5,4.2c-0.9,0.7-1.7,1.7-1.6,3.4c0.1,1.9,0.4,2.8,0.5,5.5
			c0,1.9-0.6,3.5-1.4,4.4c-0.9,1-2,1.8-3,2.3c-0.1,1.6-0.1,3.3-0.2,5.2c0.7,0.4,1.6,0.7,2.2,0.9c0.5-1,0.5-2.5,0.2-3.6
			c1.3,0.8,3.2,1.1,4.7,1.2c-0.2-1.3-0.6-3.1-1.6-4.4c1.8,0.2,3.3,0.2,4.7-0.1c-0.4-1.1-1-2.2-1.9-3c1.9,0.1,4.2-0.6,5.5-1.2
			c-0.7-1.2-2-2.4-3.2-3.1c1.7-0.2,4.5-0.5,5.8-1.1c-0.6-0.9-1.9-2.3-2.7-2.7c2.3-0.2,4.6-1,5.8-1.5c-0.4-0.7-1.1-1.5-1.8-2.1
			c2.1-0.1,4.1-0.5,5.6-1.3c-0.3-0.6-1.3-1.7-2.1-2.3C111.4,36.1,111.5,33.8,111.5,32.1L111.5,32.1z"/>
		<path class="st3" d="M92.4,36.9c-6.4-4.5-14.2-7.1-22.7-7.1c-7.7,0-14.8,2.2-20.9,5.9c1.6,1.2,2.5,2.5,2.7,3.9
			c0.2,1.2,0.3,2.6-0.3,4.7c-0.7,2.2-1.1,4.5,0.5,6.8s3.7,3.3,5.5,3.6c2.3-0.4,4.8-0.7,7.3-0.9c0.3-1.1,1.3-2,2.3-2.7
			c1.4-1.1,1.1-2.1,0.8-2.8c-0.3-0.6-0.8-1.1-1.5-1.4c-0.6-0.3-3-0.6-2.9,0.9c-0.4-0.5-0.7-1.3-0.5-2.2c0.3-1.3,2.4-1.6,3-1.6
			c-0.4-0.3-0.2-0.9,0.8-1.2c1.1-0.3,2.2-0.4,3.2-0.3c2.1,0.1,2.5,0.6,3.5,1.5c1.3,1.2,3,1.6,3.7,0.9c-0.5,1.1-2,1.7-3,1.5
			c0.5,1.5,0.7,2.9,0.8,4.5c0.1,0.7,0.2,2,0.4,3c2.9,0.2,5.7,0.6,8.2,1.1c1-0.3,2.1-0.9,3.1-2c0.9-1.1,1.8-2.4,1.4-5.8
			c-0.1-0.9-0.6-3.4-0.5-4.5C87.5,39.9,89.4,38.2,92.4,36.9L92.4,36.9z"/>
		<path class="st3" d="M66,44c0.4,0.3,0.6,0.3,0.8,0.3c0,0.1,0.1,0.2,0.2,0.2l0.2,0.2c0.2-0.1,0.7-0.3,1.1-0.4c0.4-0.2,1-0.3,1-0.3
			C67.3,43.5,67,44.1,66,44z"/>
		<g>
			<path class="st4" d="M68.6,75.4L67.8,75l-0.5-1.3l-1.2-0.5L64.8,72L64,72.9l-1.2,0.3l-0.6,1l-0.9,1L60,75.9l-0.9,1.5l-0.5,0.7
				l-0.9,0.7l-0.5-0.5l-0.5,0.5L56.1,80c-0.3-0.9-0.5-1.6-0.6-3c-0.2-2.6-0.4-5.9-0.6-9.2c4.3-0.9,9.7-1.5,14.2-1.6v10.1
				C69.1,76,68.8,75.9,68.6,75.4L68.6,75.4z"/>
			<path class="st5" d="M69.3,80.2H56.5c0.2,0.4,0.4,0.8,0.7,1.1c0.9,1.3,2.2,2.2,3.9,2.8c2.3,0.7,3.7,1.1,4.7,1.5L67,86
				c1,0.3,1.7,0.8,2.2,1.3v-7.1L69.3,80.2z"/>
			<path class="st3" d="M82.7,75.3c0.3-0.3,0.8-0.6,1.3-0.8c0.1-1.2,0.2-2.5,0.2-3.8c-0.1,0.1-0.3,0.2-0.5,0.4
				c-0.6,0.5-1.4,1.1-2.7,1.1c-1.3,0-2.1-0.5-2.7-0.9c-0.5-0.3-1-0.6-1.6-0.6c-0.7,0-1.3,0.4-1.9,0.7c-0.7,0.4-1.4,0.9-2.4,0.9
				s-1.7-0.3-2.2-0.6v3.6c0.1,0.1,0.3,0.2,0.4,0.2c0.6,0.4,1.1,0.7,1.9,0.7c0.5,0,1-0.3,1.5-0.6c0.8-0.5,1.6-1,2.8-1
				c1.1,0,1.8,0.4,2.4,0.8s1.1,0.7,1.9,0.7C81.8,76.1,82.2,75.7,82.7,75.3L82.7,75.3z M72.5,83.5c-1,0-1.7-0.3-2.2-0.6v4.4
				c0.5-0.5,1.2-1,2.2-1.3l1.2-0.4c1-0.3,2.5-0.8,4.7-1.5c0.7-0.2,1.3-0.5,1.8-0.8c-0.8-0.2-1.4-0.5-1.9-0.8s-1-0.6-1.6-0.6
				c-0.7,0-1.3,0.4-1.9,0.7C74.2,83,73.4,83.5,72.5,83.5L72.5,83.5z"/>
			<path class="st4" d="M82.7,69.8c0.4-0.3,0.9-0.7,1.6-0.9c0-0.5,0.1-0.9,0.1-1.4c-4.3-0.9-9.7-1.5-14.2-1.6v3.8
				c0.1,0.1,0.3,0.2,0.4,0.2c0.6,0.4,1.1,0.7,1.9,0.7c0.5,0,1-0.3,1.5-0.6c0.8-0.5,1.6-1,2.8-1c1.1,0,1.8,0.4,2.4,0.8
				c0.6,0.4,1.1,0.7,1.9,0.7C81.8,70.6,82.2,70.2,82.7,69.8z M70.2,77.2v3.7c0.1,0.1,0.3,0.2,0.4,0.2c0.6,0.4,1.1,0.7,1.9,0.7
				c0.5,0,1-0.3,1.5-0.6c0.8-0.5,1.6-1,2.8-1c1.1,0,1.8,0.4,2.4,0.8s1.1,0.7,1.9,0.7c0.6,0,1-0.2,1.4-0.5c0.8-1.2,1.3-2.7,1.4-4.5
				v-0.2l-0.1,0.1c-0.6,0.5-1.4,1.1-2.7,1.1c-1.3,0-2.1-0.5-2.7-0.9c-0.5-0.3-1-0.6-1.6-0.6c-0.7,0-1.3,0.4-1.9,0.7
				c-0.7,0.4-1.4,0.9-2.4,0.9S70.8,77.5,70.2,77.2L70.2,77.2z"/>
			<g>
				<path class="st3" d="M55,66.6c-0.2-3.7-0.4-7.5-0.5-10.4c4.5-1,10.5-1.7,15.2-1.7s10.7,0.7,15.2,1.7c-0.1,3-0.3,6.7-0.5,10.4
					c-4.3-0.9-9.9-1.6-14.7-1.6C64.9,65,59.3,65.7,55,66.6z"/>
				<path class="st0" d="M58,58.6l0.2-0.8l-0.8-0.3l0.8-0.1l0.1-0.8l0.3,0.7l0.8-0.2l-0.6,0.6l0.4,0.7L58.5,58L58,58.6z M63,57.9
					l-0.7-0.4l-0.6,0.6l0.2-0.8l-0.7-0.4H62l0.1-0.8l0.3,0.7l0.8-0.1l-0.6,0.5L63,57.9z M66.7,57.7L66,57.2l-0.6,0.5l0.3-0.8
					L65,56.5h0.8l0.1-0.8l0.3,0.8l0.8-0.1l-0.7,0.5L66.7,57.7z M70.4,57.6l-0.6-0.5l-0.7,0.5l0.3-0.8l-0.7-0.4h0.9l0.2-0.8l0.2,0.8
					h0.8l-0.7,0.4L70.4,57.6z M81,58l-0.7,0.4l0.4-0.7l-0.6-0.6l0.8,0.2l0.3-0.7l0.1,0.8l0.8,0.1l-0.7,0.3l0.1,0.8L81,58z
					 M76.9,57.2l-0.6-0.5l0.8,0.1l0.3-0.7l0.1,0.8h0.8l-0.7,0.4l0.2,0.8l-0.5-0.6l-0.7,0.4L76.9,57.2z M73.2,56.9l-0.7-0.5l0.8,0.1
					l0.3-0.8l0.2,0.8h0.8l-0.7,0.4l0.2,0.8l-0.6-0.5l-0.6,0.5L73.2,56.9z M58.5,64.6l0.2-0.8L58,63.5l0.8-0.1l0.1-0.8l0.3,0.7
					l0.8-0.1l-0.6,0.5l0.4,0.7L59.1,64L58.5,64.6z M63.4,64l-0.7-0.4l-0.6,0.5l0.2-0.8L61.6,63l0.8-0.1l0.1-0.8l0.3,0.8l0.8-0.1
					L63,63.3L63.4,64z M66.9,63.7l-0.6-0.4l-0.6,0.5l0.2-0.8l-0.7-0.4H66l0.2-0.8l0.3,0.8l0.8-0.1L66.6,63L66.9,63.7z M70.5,63.7
					l-0.6-0.5l-0.6,0.5l0.2-0.8l-0.6-0.4h0.8l0.2-0.8l0.2,0.8h0.8l-0.7,0.4L70.5,63.7z M80.7,64.1L80,64.5l0.4-0.7l-0.6-0.6l0.8,0.2
					l0.3-0.8l0.1,0.8l0.8,0.1l-0.7,0.4l0.1,0.8L80.7,64.1z M76.8,63.3l-0.6-0.5l0.8,0.1l0.3-0.8l0.1,0.9h0.8l-0.7,0.4l0.2,0.8
					l-0.6-0.6L76.4,64L76.8,63.3z M73.2,63l-0.7-0.5l0.8,0.1l0.3-0.8l0.1,0.8h0.9l-0.7,0.5l0.2,0.7l-0.6-0.5l-0.7,0.5L73.2,63z
					 M60.3,61.1l0.2-0.8l-0.7-0.4l0.8-0.1l0.1-0.8l0.3,0.8l0.8-0.2l-0.6,0.6l0.4,0.7l-0.7-0.4L60.3,61.1z M56.8,61.6l0.1-0.8
					l-0.7-0.3l0.8-0.1l0.1-0.8l0.3,0.7l0.8-0.1l-0.6,0.5l0.4,0.7L57.3,61L56.8,61.6z M65.1,60.6l-0.6-0.5l-0.6,0.6l0.2-0.8l-0.7-0.4
					h0.8l0.1-0.8l0.3,0.7l0.8-0.1l-0.6,0.5L65.1,60.6z M68.7,60.4L68,59.9l-0.6,0.5l0.3-0.7L67,59.2h0.8l0.2-0.8l0.2,0.8H69
					l-0.6,0.4L68.7,60.4z M72.3,60.4l-0.7-0.5L71,60.4l0.3-0.8l-0.7-0.4h0.9l0.2-0.8l0.2,0.8h0.8L72,59.7L72.3,60.4z M82.4,61
					l-0.7,0.4l0.4-0.7l-0.6-0.5l0.8,0.2l0.4-0.8v0.8l0.8,0.1l-0.7,0.4l0.1,0.8L82.4,61z M78.5,60.2l-0.6-0.5l0.8,0.1l0.3-0.7
					l0.1,0.8h0.8l-0.7,0.4l0.2,0.8l-0.6-0.6l-0.7,0.4L78.5,60.2z M74.9,59.8l-0.6-0.5l0.8,0.1l0.3-0.7l0.1,0.8h0.8l-0.7,0.4l0.2,0.8
					l-0.6-0.6l-0.6,0.5L74.9,59.8z"/>
			</g>
		</g>
		<g>
			<path class="st3" d="M119.6,45.3c1.9-0.8,4-0.4,4.5,0.8s-0.6,3.1-2.5,3.9c-1.9,0.8-4,0.4-4.5-0.8S117.7,46.1,119.6,45.3z
				 M122.4,51.7c2.3-1,3.4-3.6,2.4-5.9c-1-2.3-3.6-3.2-6-2.2c-2.3,1-3.4,3.6-2.4,5.9C117.4,51.8,120,52.7,122.4,51.7z M119.1,57.8
				l-0.9-3.5l0.5-0.1l0.2,1l7.5-1.9l-0.3-1l0.5-0.1l1.4,5.4l0.4-0.1l0.2,0.7l-2.1,0.5l-0.2-0.7l0.9-0.2l-0.7-2.7l-3.1,0.8l0.5,2.1
				l0.9-0.2l0.2,0.7l-2.6,0.6l-0.2-0.7l0.9-0.2l-0.5-2.1l-3.4,0.9l0.2,0.9L119.1,57.8L119.1,57.8z M14.5,48.3l-0.3,1.1l4.8,1.4
				c1.4,0.4,2.2,1.2,2.4,2.5c0.1,0.6,0,1.3-0.2,2c-0.6,2.1-2.2,3.1-3.9,2.6l-5.2-1.5l-0.3,1l-0.5-0.2l1.1-3.6l0.5,0.2l-0.3,1
				l4.8,1.4c1.3,0.4,2,0.3,2.5-0.2c0.2-0.3,0.4-0.6,0.6-1c0.5-1.5-0.2-2.7-1.8-3.2l-4.8-1.4l-0.3,1.1L13,51.3l0.9-3L14.5,48.3
				L14.5,48.3z M23,50.4c-0.2,0.5-0.7,0.7-1.2,0.5s-0.7-0.7-0.5-1.2s0.7-0.7,1.2-0.5S23.2,50,23,50.4z M24.7,46.6l-0.4,0.6L22.2,46
				l0.4-0.6l0.9,0.5c0.7-0.3,1.1-0.6,1.4-1.2c0.4-0.7,0.3-1.5-0.3-1.8c-0.5-0.3-1.1-0.2-2.4,0.5c-1.4,0.7-1.6,0.8-2.1,0.9
				c-0.5,0.1-1.1,0-1.6-0.3c-1.3-0.7-1.6-2.1-0.8-3.6c0.3-0.5,0.5-0.8,1-1.1l-0.3-0.2l0.4-0.6l2,1.1l-0.4,0.6l-0.8-0.5
				c-0.6,0.3-0.9,0.6-1.1,1c-0.3,0.6-0.2,1.3,0.4,1.6c0.5,0.3,0.9,0.2,2.3-0.6c0.7-0.3,1.1-0.6,1.2-0.6c0.3-0.2,0.7-0.3,1.2-0.3
				s0.9,0.1,1.4,0.3c1.3,0.7,1.7,2.2,1,3.6c-0.4,0.7-0.8,1.1-1.4,1.4L24.7,46.6L24.7,46.6z M28.2,40.5c0,0.5-0.4,0.9-0.9,0.9
				s-0.9-0.4-0.9-0.9s0.4-0.9,0.9-0.9C27.8,39.7,28.2,40,28.2,40.5z"/>
			<g>
				<path class="st3" d="M48.9,23.3l-5.7,2.9l-0.3-0.5l0.9-0.5l-3.5-6.9l-0.9,0.5l-0.3-0.5l4.9-2.5l-0.2-0.3l0.6-0.3l1,1.9l-0.6,0.3
					l-0.4-0.9l-2.5,1.3l1.4,2.8l1.9-1l-0.4-0.8l0.6-0.3l1.2,2.3L46,21.1l-0.4-0.8l-1.9,1l1.5,2.9l2.6-1.3L47.3,22l0.6-0.3L48.9,23.3
					z M54.4,21.3l-3.7,1.2L50.5,22l1-0.3l-2.4-7.3l-1,0.3l-0.2-0.5l3.9-1.3c1.6-0.5,2.9,0.1,3.4,1.6c0.5,1.4-0.4,2.9-1.9,3.4
					c-0.2,0.1-0.4,0.1-0.7,0.2l-0.2-0.6c0.2,0,0.2,0,0.4-0.1c0.9-0.3,1.1-1.1,0.8-2.2c-0.4-1.2-1.1-1.7-2-1.4l-0.8,0.3l2.4,7.1
					l1.1-0.4L54.4,21.3L54.4,21.3z M58.7,16.4l0.8-3.5l1.8,3.1C61.3,16,58.7,16.4,58.7,16.4z M65.2,18.3l-0.6,0.1l-4.7-7.9l-0.8,0.1
					l-1.9,9l-0.8,0.1l0.1,0.6l2.7-0.5l-0.1-0.6L58,19.4l0.5-2.3l3.2-0.6l1.2,2L62,18.7l0.1,0.6l3.2-0.6L65.2,18.3L65.2,18.3z
					 M69.1,10.8h0.8c1,0,1.5,0.6,1.5,1.7s-0.6,1.8-1.6,1.8H69L69.1,10.8z M74.5,18.4H74c-0.3,0-0.4-0.1-0.7-0.6l-1.9-2.9
					c1.3-0.4,1.9-1.2,1.9-2.4c0-0.7-0.2-1.3-0.7-1.7c-0.5-0.5-1.1-0.7-2.3-0.7h-4v0.6h1v7.7h-1V19h3.8v-0.6h-1V15h0.4l2,3.2
					c0.5,0.7,0.6,0.8,1.4,0.8h1.7L74.5,18.4L74.5,18.4z M80.6,20l-4.3-0.7l0.1-0.6l1.3,0.2l1.2-7.4l-2.3-0.4l-0.2,1.1l-0.7-0.1
					l0.4-2.2l0.7,0.1l-0.1,0.4l6.3,1.1l0.1-0.4l0.7,0.1l-0.4,2.2l-0.7-0.1l0.2-1.1l-2.3-0.4l-1.2,7.4l1.3,0.2L80.6,20L80.6,20z
					 M93.1,24.2l-3.7-1.4l0.2-0.5l1,0.4l2.1-5.4l-5.1,5l-0.7-7.1l-2,5.3l1.1,0.4l-0.2,0.5l-2.9-1.1l0.2-0.5l1,0.4l2.8-7.2l-1-0.4
					l0.2-0.5l2.2,0.9l0.7,7l4.9-4.8l2.5,1l-0.2,0.5l-1-0.4l-2.8,7.2l1,0.4L93.1,24.2L93.1,24.2z M99.6,28.5l-5.4-3.4l0.3-0.5
					l0.9,0.5l4.2-6.5l-0.9-0.5l0.3-0.5l4.7,3l0.2-0.3l0.6,0.4l-1.1,1.8l-0.6-0.4l0.5-0.8l-2.3-1.5l-1.7,2.7l1.8,1.2l0.5-0.8l0.6,0.4
					l-1.4,2.2l-0.6-0.4l0.5-0.8l-1.8-1.2l-1.8,2.8l2.5,1.6l0.5-0.8l0.6,0.4L99.6,28.5L99.6,28.5z M40.2,23c-1.5-2-4.2-2.4-6.2-0.9
					l-3.4,2.5l0.3,0.5l0.8-0.6l4.6,6.2c0.2,0.1,0.4,0.2,0.6,0.2l2.2-1.6c1.1-0.8,1.6-1.6,1.8-2.8C41.2,25.2,40.9,24,40.2,23L40.2,23
					z M38.5,28.9l-0.9,0.6l-4.4-5.9l0.9-0.7c1.3-0.9,3.3-0.4,4.5,1.2C39.9,25.8,39.8,27.9,38.5,28.9L38.5,28.9z M111,26.7l-0.4,0.4
					l0.8,0.7l-3.8,4.1l1-7.5l-2-1.8l-0.4,0.4l0.7,0.6l-0.1,0.8l-4.7,5.2l-0.8-0.7l-0.4,0.4l2.2,2l0.4-0.4l-0.8-0.7l3.9-4.3l-0.8,6.9
					c0.8-0.2,1.7-0.4,2.6-0.7c0.1,0,0.2,0,0.2-0.1l3.4-3.7l0.8,0.8l0.4-0.4L111,26.7L111,26.7z M120,36.4l-0.3,0.2l-3.9-5l0.3-0.2
					l-0.4-0.6l-1.8,1.4l0.4,0.6l0.9-0.7l1.4,1.8l-6,4.5l-0.3-0.4c-0.2,0.1-0.3,0.2-0.5,0.3l2.2,2.9l0.4-0.3l-0.8-1l6-4.5l1.4,1.8
					l-0.9,0.7l0.4,0.6l1.8-1.4L120,36.4L120,36.4z"/>
			</g>
			<g>
				<path class="st3" d="M80.9,128.4l-0.7,0.2l-0.5-2.4l0.7-0.2l0.2,1c0.7,0.3,1.2,0.4,1.8,0.3c0.8-0.2,1.3-0.8,1.1-1.5
					c-0.1-0.6-0.6-0.9-2-1.4c-1.5-0.5-1.6-0.6-2.1-0.9c-0.4-0.3-0.7-0.8-0.8-1.4c-0.3-1.4,0.5-2.6,2.1-3c0.5-0.1,0.9-0.1,1.5,0
					l-0.1-0.4l0.7-0.2l0.5,2.2l-0.7,0.2l-0.2-0.9c-0.6-0.2-1-0.3-1.5-0.2c-0.7,0.1-1.1,0.7-1,1.4c0.1,0.5,0.5,0.8,1.9,1.3
					c0.7,0.3,1.1,0.4,1.3,0.5c0.3,0.1,0.7,0.4,1,0.7c0.3,0.4,0.5,0.8,0.7,1.3c0.3,1.5-0.5,2.8-2.1,3.1c-0.8,0.2-1.3,0.1-2-0.1
					L80.9,128.4z M94.5,124.1l-5.9,2.3l-0.2-0.5l0.9-0.4l-2.8-7.2l-0.9,0.4l-0.2-0.5l5.1-2l-0.1-0.3l0.7-0.3l0.8,2l-0.7,0.3
					l-0.4-0.9l-2.6,1l1.2,2.9l2-0.8l-0.3-0.8l0.7-0.3l1,2.5l-0.7,0.3l-0.3-0.9l-2,0.8l1.2,3.1l2.7-1.1l-0.4-0.9l0.7-0.3L94.5,124.1
					L94.5,124.1z M103.4,118.7c-0.8,0.9-1.3,1.4-2.2,2c-2.4,1.5-5.1,0.9-6.5-1.4s-0.7-5,1.6-6.4c0.7-0.5,1.3-0.7,2.2-0.8l-0.3-0.5
					l0.6-0.4l1.2,2.1l-0.6,0.4L99,113c-0.9-0.1-1.4,0-2,0.4c-1.6,1-1.9,3-0.7,4.9c1.1,1.9,3.2,2.6,4.8,1.6c0.6-0.3,0.9-0.7,1.2-1.4
					l-0.5-0.9l0.6-0.4L103.4,118.7L103.4,118.7z M107.4,104.8l-0.8,0.8l3.4,3.7c1,1.1,1.3,2.2,0.8,3.3c-0.3,0.6-0.6,1.1-1.2,1.6
					c-1.6,1.5-3.4,1.5-4.7,0.2l-3.6-4l-0.8,0.7l-0.4-0.4l2.8-2.5l0.4,0.4l-0.7,0.7l3.4,3.7c0.9,1,1.5,1.3,2.3,1.1
					c0.3-0.1,0.7-0.3,1-0.6c1.2-1.1,1.2-2.4,0.1-3.6l-3.4-3.7l-0.8,0.8l-0.4-0.4l2.3-2.1L107.4,104.8z M122.5,97l-1.8,3.3l-0.5-0.3
					l0.5-0.9l-6.8-3.7l-0.5,0.9l-0.5-0.3l1.8-3.3l0.5,0.3l-0.5,0.9l6.8,3.7l0.5-0.9L122.5,97z M125.9,89l-1.5,4l-0.5-0.2l0.5-1.2
					l-7-2.6l-0.8,2.2l1,0.4l-0.3,0.7l-2.1-0.8l0.3-0.7l0.4,0.1l2.2-5.9l-0.4-0.1l0.3-0.7l2.1,0.8l-0.3,0.7l-1-0.4l-0.8,2.2l7,2.6
					l0.5-1.2L125.9,89L125.9,89z M128.3,79.2l-0.7,3.7l-0.6-0.1l0.2-1l-3.6-0.7l-4.5,1.8l-0.2,0.8l-0.6-0.1l0.7-3.7l0.6,0.1l-0.2,1
					l3.2-1.3l-2.5-2.3l-0.2,1.1l-0.6-0.1l0.6-3.1l0.6,0.1l-0.2,0.9l3.2,2.9l4,0.8l0.2-1L128.3,79.2L128.3,79.2z M119.3,101.9
					l-0.3,0.4c-0.2,0.2-0.4,0.3-0.9,0.2l-3.5-0.2c0.4-1.2,0.2-2.2-0.8-2.9c-0.6-0.4-1.2-0.6-1.8-0.5c-0.7,0.1-1.2,0.5-1.9,1.4
					l-2.4,3.2l0.4,0.3l0.6-0.8l6.2,4.6l-0.6,0.8l0.5,0.3l2.2-3l-0.5-0.3l-0.6,0.8l-2.7-2l0.2-0.3l3.7,0.3c0.8,0.1,1,0,1.5-0.6l1-1.4
					L119.3,101.9L119.3,101.9z M110,101.8l0.5-0.7c0.6-0.8,1.4-0.8,2.3-0.2c0.8,0.6,1.1,1.6,0.5,2.3l-0.5,0.6L110,101.8L110,101.8z"
					/>
			</g>
			<g>
				<path class="st3" d="M13.1,87.4l-0.9-3.6l0.5-0.1l0.2,1l3.4-0.8l-1-4.2l-3.4,0.8l0.2,1l-0.5,0.1L10.7,78l0.5-0.1l0.2,1l7.5-1.8
					l-0.2-1l0.5-0.1l0.9,3.6l-0.5,0.1l-0.2-1l-3.3,0.8l1,4.2l3.3-0.8l-0.2-1l0.5-0.1l0.9,3.6l-0.5,0.1l-0.2-1l-7.5,1.8l0.2,1
					C13.6,87.3,13.1,87.4,13.1,87.4z M18.2,89.5c1.8-0.8,4-0.5,4.5,0.7c0.6,1.2-0.6,3.1-2.4,3.9c-1.9,0.8-4,0.5-4.5-0.7
					C15.2,92.2,16.3,90.3,18.2,89.5z M21.1,95.8c2.3-1.1,3.4-3.7,2.3-5.9c-1-2.2-3.7-3.2-6-2.1s-3.4,3.7-2.3,5.9
					C16.1,95.9,18.8,96.9,21.1,95.8z M24.5,108.5l-2.3-3.2l0.5-0.3l0.7,0.9l4.7-3.4l-7,1.4l3.3-6.4l-4.6,3.3l0.7,0.9L20,102
					l-1.8-2.5l0.5-0.3l0.7,0.9l6.2-4.5l-0.7-0.9l0.5-0.3l1.4,1.9l-3.2,6.2l6.7-1.4l1.6,2.1l-0.5,0.3l-0.7-0.9l-6.2,4.5l0.7,0.9
					C25.2,108,24.5,108.5,24.5,108.5z M31.5,115.4l-4.7-4.3l0.4-0.4l0.7,0.7l5.2-5.7l-0.7-0.7l0.4-0.4l4.1,3.7l0.3-0.3l0.5,0.5
					l-1.4,1.6l-0.5-0.5l0.7-0.7l-2-1.9l-2.1,2.3l1.6,1.5l0.6-0.7l0.5,0.5l-1.8,1.9l-0.5-0.5l0.6-0.7l-1.6-1.5l-2.2,2.4l2.1,2
					l0.7-0.7l0.5,0.5L31.5,115.4L31.5,115.4z M39.4,120.9l-5.2-3.5l0.3-0.5l0.8,0.6l4.3-6.4l-0.8-0.6l0.3-0.5l3.1,2.1l-0.3,0.5
					l-0.8-0.6l-4.2,6.2l2.4,1.6l0.6-0.8l0.6,0.4L39.4,120.9L39.4,120.9z M44.8,119.7l2.6-2.5l-0.2,3.6L44.8,119.7z M49.1,125
					l-0.5-0.2l0.5-9.2l-0.7-0.3l-6.7,6.4l-0.8-0.3l-0.2,0.5l2.5,1.1l0.2-0.5l-1-0.4l1.7-1.6l3,1.3l-0.1,2.3l-0.9-0.4l-0.2,0.5l3,1.4
					L49.1,125L49.1,125z M58.4,128.1l-0.9-0.2l-3-7.5l-1.4,5.7l1,0.2l-0.1,0.5l-2.9-0.7l0.1-0.5l1.1,0.3l1.6-6.8l-0.3-0.8l-0.9-0.2
					l0.1-0.5l2.6,0.6l2.8,7l1.3-5.5l-1-0.2l0.1-0.5l2.9,0.7l-0.1,0.5l-1.1-0.3L58.4,128.1L58.4,128.1z M67.1,120l-4.2-0.2v0.6h1
					l-0.3,7.7h-1v0.6l4.2,0.1c1.3,0,2.3-0.3,3.1-1.1c0.9-0.8,1.5-2,1.5-3.2C71.5,122.1,69.6,120.1,67.1,120z M69.5,124.5
					c-0.1,2.1-1.4,3.6-3.1,3.6h-1.1l0.3-7.4h1.1C68.3,120.8,69.6,122.5,69.5,124.5z"/>
			</g>
		</g>
		<g>
			<path class="st3" d="M112.5,75l-3.3,1l0.7,0.3l-1.2,0.7c0.1-0.7,0.2-1.3,0.3-2l1.8-1.5v0.8l2-2.8l-3.1,1.4l0.8,0.2l-1.4,1.2
				c0.1-0.8,0.2-1.7,0.2-2.5l1.8-2l0.1,0.8l1.6-3l-2.9,1.8l0.8,0.1l-1.4,1.5v-1.6c0-4-0.6-7.8-1.7-11.4c-1.8,0.2-3.6-0.4-4.5-0.6
				c2.3,1.4,3.1,2.8,3.4,4.5c-1.8,0.4-4.3-0.2-5.7-1.2c1.3,1.2,2.2,3,2.2,4.8c-1.9,0.1-3.7-0.8-4.9-2.1c0.8,0.9,1.9,3.3,1.6,4.9
				c-1.6-0.2-3.5-1.2-4.5-2.4c0.8,1.9,1.2,3.4,1.1,5c-1.6-0.3-2.8-0.7-4.2-2.1c0.7,1.7,0.9,3.4,0.8,4.8c-1.8-0.6-3-1.4-4.1-3.1
				c0.5,1.5,0.9,3.5,0.5,4.7c-1.5-0.5-2.6-1.4-3.4-3c0.8,1.7,0.7,3.6,0.4,4.6c-0.6-0.1-1.5-0.6-1.9-1.1c0,0.3,0,0.6-0.1,0.9
				c-0.1,1.1-0.3,2.2-0.7,3.2c0.1,0.1,0.4,0.5,0.4,0.5c0.8,0.9,1.9,1.7,2.8,2c-0.4,0.1-0.9,0.4-1.4,0.4c0.6,0.7,1.8,0.8,2.5,1.5
				c-0.6,0.1-0.7,0.5-1.4,0.4c1.3,1,2.5,1.1,3.2,1.1c0.3,0,1.2,0.1,1.7,0c0.7-0.1,1.4,0.2,1.8,0.4l7.2-14.6l-0.8,0.1l2.3-2.6
				l-0.7,3.4l-0.4-0.7l-7.2,14.6c0.1,0.2,0.2,0.4,0.2,0.6h0.1l0.3-0.2l11.6-9.2l-0.8-0.2l3.1-1.4l-2.1,2.8v-0.8L94.4,87
				c0.3,0.1,0.6,0.2,0.7,0.3c0.2,0.3,0.1,0.5,0,1c-0.2,0.5-0.3,0.7-0.7,0.7h-0.5c0.1,0.1,0.2,0.1,0.2,0.3c0.1,0.1,0.1,0.4-0.3,0.9
				c-0.4,0.4-0.7,0.6-1,0.4c-0.2-0.1-0.2-0.2-0.3-0.3c0,0.1,0.1,0.2,0.1,0.4c0.1,0.4-0.3,0.6-0.7,0.7c-0.8,0.3-1.2,0.2-1.3-0.1
				c-0.4-0.6-0.2-1.4,0.1-1.5c-0.1,0.2-0.1,0.5,0,0.8c0,0.2,0.1,0.6,0.6,0.6c0.2,0,0.6-0.1,0.9-0.3c0.2-0.1,0.2-0.4,0.1-0.7
				c0-0.1-0.1-0.3-0.3-0.5c0.3,0.1,0.4,0.2,0.6,0.4c0.2,0.2,0.5,0.2,0.7,0s0.4-0.4,0.4-0.6c0.2-0.4-0.3-0.7-0.6-0.9
				c0.5,0,0.6,0.2,1.1,0.2c0.4-0.1,0.6-0.8,0.6-1s-0.2-0.3-0.5-0.4c-0.2,0-0.4-0.1-0.6,0v0.1c-0.1,0.2-0.1,0.4-0.5,0.6
				c-0.2,0.1-0.3,0.1-0.1-0.1c0.2-0.1,0.4-1-0.1-1.3c-0.3-0.2-0.8-0.4-1.3-0.4c-0.6,0-1.5,0.1-1.9,0c-0.4,0-0.7,0.5-0.7,0.7
				c-0.1,0.5-0.3,1.2-1.1,0.9c-0.9-0.5-2.3-0.5-3.8-1.1c0.2,0.5,0.1,0.9,0.4,1.4c-1.4-0.3-1.7-1-3-1.5c0.2,0.5,0.2,0.8,0.5,1.3
				c-1.1-0.2-2.1-1.2-3.6-1.6h-0.1c-0.6,0.2-1.1,0.3-1.5,0.5c1.1,1.2,2,2.7,2.4,4.5c0,0-0.8,0-1.9-0.4c0.3,1,0.5,2.1,0.5,3.2
				c0,0-0.9-0.2-2-0.9c0.1,1.1,0.1,2.2-0.2,3.3c0,0-1-0.4-2.2-1.6c-0.1,1.1-0.4,2.2-0.9,3.4c0,0-0.9-0.6-1.8-2
				c-0.4,1.1-0.9,2.2-1.7,3.3c0,0-1-1-1.7-3.1c-0.9,1.3-1.7,1.9-1.7,1.9c-0.5-1.1-0.8-2.2-0.9-3.4c-1.2,1.2-2.2,1.6-2.2,1.6
				c-0.2-1.2-0.3-2.3-0.2-3.4c-1.2,0.7-2,0.9-2,0.9c0-1.1,0.2-2.2,0.5-3.2c-1.1,0.4-1.9,0.4-1.9,0.4c0.4-1.9,1.6-3.8,2.5-4.6
				c-0.4-0.1-0.8-0.3-1.3-0.4h-0.1c-1.5,0.4-2.6,1.4-3.6,1.6c0.3-0.4,0.2-0.8,0.4-1.3c-1.3,0.5-1.6,1.2-3,1.5
				c0.2-0.5,0.1-0.9,0.4-1.4c-1.3,0.6-3,1-3.8,1.2s-0.9-1.1-1.2-1.4c-0.1-0.1-0.8-0.2-1.1-0.1c-0.4,0.1-1.2,0-1.9,0
				c-0.6,0-1,0.2-1.4,0.4c-0.4,0.3-0.2,1.2,0,1.4c0.2,0.2,0.1,0.1-0.1,0.1c-0.4-0.2-0.5-0.4-0.5-0.6v-0.1h-0.7
				c-0.3,0.1-0.5,0.2-0.5,0.4s0.1,0.9,0.5,1s0.5-0.1,1.1-0.1c-0.3,0.2-0.9,0.5-0.7,0.9c0.1,0.2,0.2,0.3,0.4,0.6
				c0.2,0.2,0.5,0.2,0.7,0s0.4-0.3,0.6-0.4c-0.2,0.1-0.2,0.3-0.3,0.4c-0.1,0.3-0.1,0.6,0.1,0.7c0.2,0.2,0.7,0.3,0.9,0.3
				c0.4,0.1,0.5-0.3,0.6-0.6c0.1-0.3,0.1-0.5,0-0.8c0.3,0.1,0.5,0.9,0,1.5c-0.2,0.3-0.6,0.4-1.3,0.1c-0.4-0.2-0.7-0.3-0.6-0.8
				c0-0.1,0.1-0.3,0.1-0.4c-0.1,0.1-0.1,0.2-0.3,0.3c-0.3,0.2-0.7,0-1-0.4c-0.4-0.5-0.3-0.7-0.3-0.9c0.1-0.1,0.1-0.2,0.2-0.3
				c-0.2,0.1-0.4,0.1-0.5,0c-0.3-0.1-0.5-0.2-0.6-0.8c-0.2-0.5-0.2-0.7,0-1c0.2-0.2,1-0.4,1.5-0.3c0-0.3,0.1-0.6,0.4-0.8
				c0.3-0.2,1.1-0.6,1.9-0.5c0.6,0.1,1.4,0,1.7,0c0.3,0,2.2-0.4,3.6-1.4c-0.7,0.1-0.8-0.3-1.4-0.4c0.7-0.7,1.9-0.9,2.5-1.5
				c-0.5-0.1-1-0.5-1.4-0.5c1.2-0.6,1.9-1,2.7-1.9c0,0,0.3-0.4,0.4-0.5c-0.4-1-0.6-2-0.7-3.2c0-0.3,0-0.6-0.1-0.8
				c-0.3,0.3-0.9,0.6-1.8,1c-0.4-1.1-0.2-3.1,0.3-4.6c-0.8,1.6-1.7,2.6-3.3,3.1c-0.4-1.2-0.2-3.2,0.4-4.7c-1,1.7-2.1,2.6-4,3.2
				c-0.2-1.4,0-3.3,0.7-4.9c-1.4,1.4-2.6,1.8-4.2,2.1c-0.1-1.7,0.3-3.2,1.1-5c-1,1.2-3.1,2.1-4.7,2.3c0.1-1.4,1.1-3.4,1.7-4.6
				c-1.5,1.1-3.1,1.8-4.8,1.9c0.2-1.6,0.9-3.4,2.2-4.8c-1.5,1.1-3.7,1.7-5.5,1.5c0.4-1.8,1.5-3.5,3-4.5c-0.9,0.2-2.4,0.5-4.2,0.4
				c-1.1,3.6-1.6,7.3-1.7,11.2c-0.9-0.7-1.5-0.9-2.1-1.5c0.1,0.8,0.2,1.3,0.3,2.4c0.2,1.9,0.9,3,2.1,3.6c0.1,0.5,0.1,1.1,0.2,1.6
				c-0.9-0.6-2-0.9-3.6-0.9c0.9,3.1,2.3,3.3,4.1,3.6c0.1,0.3,0.1,0.6,0.2,0.8c-1-0.2-2.1-0.3-3.4,0.1c0.9,1.4,2.2,2.3,4.2,2.6
				c-1.2-0.1-2.6,0.1-3.6,0.6c1.5,1.3,3,1.8,4.4,1.7c0.1,0.2,0.1,0.4,0.2,0.6c-1.1,0.3-2.1,0.9-2.7,1.4c1.2,0.4,2.4,0.6,3.5,0.5v0.1
				c-0.6,0.5-1.2,1.3-1.6,2.5c0.8-0.2,1.7-0.3,2.6-0.5c0.2,0.3,0.4,0.6,0.5,1c-0.5,0.9-0.6,2-0.3,3.2c0.7-0.2,1.3-0.5,1.8-0.8
				c0.2,0.3,0.3,0.5,0.5,0.8c-0.2,1.4,0.1,2.8,1,3.7c0.3-0.4,0.6-0.7,0.8-1.1c1.8-2.7,0.7-4.7,0.7-6.5v-0.1c0.1,2.1,2,4.2-0.2,6.8
				c0,0.1-0.1,0.1-0.1,0.1c7.3,8.5,18.1,13.8,30.1,13.8c17.1,0,31.7-10.8,37.3-26l1.8-0.8l-0.1,0.8l2.6-2.3l-3.4,0.7l0.7,0.4
				l-1.4,0.6c0.2-0.7,0.5-1.4,0.7-2.1l2-1.1l-0.1,0.8l2.4-2.5l-3.3,1l0.7,0.3l-1.6,0.9l0.6-2.4l1.5-1l-0.1,0.8L112.5,75L112.5,75z"
				/>
			<path class="st0" d="M94.3,87.6h0.6c0.3,0.1,0.5,0.2,0.5,0.4s-0.1,0.9-0.6,1c-0.4,0.1-0.5-0.1-1.1-0.2c0.3,0.2,0.8,0.5,0.6,0.9
				c-0.1,0.2-0.2,0.3-0.4,0.6c-0.2,0.2-0.5,0.1-0.7,0c-0.2-0.2-0.4-0.3-0.6-0.4c0.2,0.1,0.2,0.3,0.3,0.5c0.1,0.3,0.1,0.6-0.1,0.7
				c-0.3,0.2-0.7,0.3-0.9,0.3c-0.4,0-0.5-0.3-0.6-0.6V90c-0.3,0.1-0.5,0.9-0.1,1.5c0.2,0.3,0.6,0.4,1.3,0.1c0.4-0.1,0.7-0.3,0.7-0.7
				c0-0.1-0.1-0.3-0.1-0.4c0.1,0.1,0.1,0.2,0.3,0.3c0.3,0.2,0.7,0,1-0.4c0.4-0.5,0.3-0.7,0.3-0.9c-0.1-0.1-0.1-0.2-0.2-0.3
				c0.2,0.1,0.4,0.1,0.5,0c0.3,0,0.5-0.2,0.7-0.7s0.2-0.7,0-1c-0.1-0.1-0.4-0.2-0.7-0.3l11.6-9.1v0.8l2.1-2.8l-3.1,1.4l0.8,0.2
				l-11.6,9.2l-0.3,0.2h-0.1 M94.1,86.6l7.3-14.6l0.3,0.7l0.7-3.4l-2.2,2.6l0.8-0.1l-7.2,14.6"/>
			<g>
				<path class="st0" d="M92.3,88.3c0.2,0.4,0.2,1,0.1,1.4c0.8-0.1,0.9-0.8,0.9-1.2C93.2,88.1,92.6,88.1,92.3,88.3L92.3,88.3z
					 M92.2,88.3c-0.4,0-0.6-0.3-0.7-0.5s-0.3-0.4-0.3,0c0,0.3,0,0.5,0.2,0.6C91.5,88.5,91.9,88.5,92.2,88.3z M92.2,89.7
					c-0.1-0.2-0.2-0.4-0.3-0.7c-0.1,0.2-0.2,0.7-0.3,1.2c0,0.1,0,0.1,0.2,0.1s0.5-0.1,0.7-0.2C92.5,90,92.3,89.9,92.2,89.7
					L92.2,89.7z M101,74.4h0.8l-4.5,6.9c-0.5,1.1-1,2.1-1.5,3c0,0,0-0.1,0.1-0.1l6.3-9.6l0.3,0.8l1.1-3.3L101,74.4L101,74.4z"/>
				<path class="st0" d="M99.3,80.4l8.2-10.4l0.2,0.8l1.4-3.2l-2.7,2.1h0.8l-7.4,9.4L98,81.8C98.4,81.4,98.9,80.9,99.3,80.4
					L99.3,80.4z M98.4,83.5c0.7-0.5,1.4-1.1,2.1-1.7l6.8-6.3l0.1,0.8l1.8-2.9l-3,1.6l0.8,0.2l-6.9,6.4
					C99.5,82.2,98.9,82.9,98.4,83.5z M105.9,82l-9.6,4.8c-0.2,0.1-0.3,0.2-0.4,0.3l0.2,0.2v0.1l10-5l-0.1,0.8l2.6-2.3l-3.4,0.7
					C105.2,81.6,105.9,82,105.9,82z M91.4,92.2c-0.1,0-0.3-0.1-0.4-0.2l-1.7,3.6l-0.6,0.2l-2,3.9l1-0.3l0.4,1l1.9-4l-0.2-0.6
					C89.8,95.8,91.4,92.2,91.4,92.2z"/>
				<path class="st0" d="M98.1,85.4c0.7-0.3,1.4-0.7,2.2-1.1l6.4-4.2v0.8l2.3-2.6l-3.3,1.2l0.8,0.3l-7,4.6
					C99,84.7,98.5,85.1,98.1,85.4L98.1,85.4z M90.6,91.2c0-0.2-0.1-0.4-0.1-0.6l-2.3,2.5l-0.7,0.1l-0.1,0.1l-3.2,3.2h0.9l0.1,0.8
					l2.6-3.5l0.5-0.1C88.3,93.7,90.6,91.2,90.6,91.2z M94.8,86.3c0.3-0.2,0.7-0.5,1.2-0.9l11.2-12.3l0.2,0.8l1.6-3l-2.9,1.9l0.8,0.1
					L95.1,85.8C95,85.9,94.9,86.1,94.8,86.3L94.8,86.3z M84.8,94.7l4.2-2.9c0.5-0.5,1-1.1,1.2-1.3L85,94l-0.7-0.1l-0.4,0.2l-3.4,2.1
					l0.9,0.2l0.1,0.7l2.7-2.3L84.8,94.7L84.8,94.7z M81.3,95.1l1.7-1l1.6-1.1l0.5,0.1c0,0,3.8-2.3,4.7-3h0.1l-5,2.5l-0.6-0.2l-4,1.9
					l0.9,0.3L81.3,95.1L81.3,95.1z"/>
			</g>
			<g>
				<path class="st0" d="M44.8,87.6c-0.4-0.1-1.3,0.1-1.5,0.3c-0.2,0.3-0.2,0.5,0,1s0.3,0.7,0.6,0.8h0.5c-0.1,0.1-0.2,0.1-0.2,0.3
					c-0.1,0.1-0.1,0.4,0.3,0.9c0.4,0.4,0.7,0.6,1,0.4c0.2-0.1,0.2-0.2,0.3-0.3c0,0.1-0.1,0.2-0.1,0.4c-0.1,0.4,0.2,0.6,0.6,0.8
					c0.8,0.3,1.2,0.2,1.3-0.1c0.4-0.6,0.2-1.4,0-1.5c0.1,0.2,0,0.5,0,0.8c0,0.2-0.2,0.6-0.6,0.6c-0.2,0-0.6-0.1-0.9-0.3
					c-0.2-0.1-0.2-0.4-0.1-0.7c0-0.1,0.1-0.3,0.3-0.4c-0.3,0.1-0.4,0.2-0.6,0.4c-0.2,0.2-0.5,0.2-0.7,0s-0.4-0.4-0.4-0.6
					c-0.2-0.4,0.4-0.7,0.7-0.9c-0.5,0-0.6,0.2-1.1,0.1c-0.4-0.1-0.5-0.8-0.5-1s0.2-0.3,0.5-0.4c0.2-0.1,0.5,0,0.7,0 M34.9,83
					C35,83,35,83,34.9,83c-1.2-0.7-2.1-0.9-3.7-0.7C32.7,82.4,33.8,82.7,34.9,83z M35.6,91.5c0.2-1.2,0.9-2.5,2.1-3.5
					c0.8-0.6,1.2-0.9,0.6-0.2C37.3,88.9,36.1,90.6,35.6,91.5z M38.1,94.6c-0.4-1.1-0.1-2.8,0.4-4c0.3-0.8,1.1-2,1.4-2.1
					C39,89.9,38,93.6,38.1,94.6z M34.5,79.5c-0.1-0.4-0.5-0.7-0.9-0.6s-0.7,0.5-0.6,0.9c0.1,0.4,0.5,0.7,0.9,0.6
					S34.6,79.9,34.5,79.5z M41.1,80.6c0-1.1-0.1-2.3,0-3.6c-2.3,1.6-3,4.5-2.1,6.5h-0.3c-0.4,0.1-0.7,0.5-0.6,0.9
					c0.1,0.4,0.5,0.7,0.9,0.6s0.7-0.5,0.6-0.9c0-0.2-0.2-0.4-0.3-0.5c-0.4-1.8-0.1-4,0.9-5c-0.3,1.1-0.8,3.5-0.5,5.6
					c0.4-0.4,0.6-0.8,0.8-1.2c0,0.3,0.1,0.7,0.3,1.1c0-1.7,0.6-3.4,2.4-4.6c-1.3,1.7-2.1,3.6-2.2,5c1-1.2,3.1-1.6,3.3-6.3
					C43.1,78.6,41.8,79.4,41.1,80.6z M42.6,85.4c-0.1-0.4-0.5-0.7-1-0.6c-0.4,0.1-0.7,0.5-0.6,1c0.1,0.4,0.5,0.7,1,0.6
					C42.4,86.3,42.6,85.8,42.6,85.4z M42.3,87.9c-0.1-0.4-0.5-0.7-1-0.6c-0.4,0.1-0.7,0.5-0.6,1c0.1,0.4,0.5,0.7,1,0.6
					C42.1,88.8,42.4,88.3,42.3,87.9z"/>
				<path class="st0" d="M37.5,75.8c-1.7,1.4-2.1,3.1-2,4.7h-0.2c-0.3,0.1-0.6,0.4-0.5,0.7c0.1,0.3,0.4,0.6,0.8,0.5
					c0.1,0,0.1,0,0.2-0.1c0.2,0.4,0.4,0.9,0.6,1.2c-0.1-0.5-0.3-1.1-0.3-1.7v-0.2c-0.1-1.3,0.1-2.7,0.8-3.6
					c-0.2,1.4-0.6,4.2-0.2,5.9C37.2,81.4,39.8,80.6,37.5,75.8z M44.2,86.5c-0.1-0.3-0.4-0.6-0.8-0.5c-0.3,0.1-0.6,0.4-0.5,0.8
					c0.1,0.3,0.4,0.6,0.8,0.5C44,87.2,44.3,86.9,44.2,86.5z M40.7,86.4c-0.1-0.3-0.4-0.5-0.7-0.5c-0.3,0.1-0.5,0.4-0.5,0.7
					c0.1,0.3,0.4,0.5,0.7,0.5C40.5,87,40.7,86.7,40.7,86.4z M32.6,78.3c0-0.3-0.3-0.5-0.5-0.5c-0.8-1.1-2-2.3-4-2.5
					c1.1,0.5,2.7,1.5,3.8,2.5c-0.3,0.1-0.4,0.3-0.4,0.6c0.1,0.3,0.3,0.5,0.6,0.4C32.5,78.9,32.7,78.6,32.6,78.3z M32.6,74.6
					c-0.1-0.4-0.4-0.6-0.8-0.5c-0.4-1.8-0.9-3.1-2.9-4.5c1,1.3,2.2,3.1,2.8,4.5c-0.3,0.1-0.5,0.4-0.4,0.8c0.1,0.4,0.4,0.6,0.8,0.5
					C32.5,75.3,32.7,74.9,32.6,74.6z M34.7,81.4c0-0.3-0.3-0.5-0.6-0.4c-0.1,0-0.3,0.1-0.3,0.2c-1.8-1.6-3-1.6-3.9-1.6
					c0.6,0.2,2.6,0.8,3.9,1.7c-0.1,0.1-0.1,0.2-0.1,0.3c0.1,0.3,0.3,0.5,0.6,0.4C34.5,82,34.7,81.7,34.7,81.4z M36.1,83.7
					c-0.1-0.4-0.5-0.7-0.9-0.6s-0.7,0.5-0.6,0.9c0.1,0.4,0.5,0.7,0.9,0.6C36,84.5,36.2,84.1,36.1,83.7z M37.3,85
					c-0.1-0.3-0.3-0.5-0.6-0.4c-0.2,0-0.3,0.2-0.4,0.3c-1.5-0.2-3.2,0-4.6,0.8c1.6-0.4,3.2-0.7,4.6-0.7v0.2c0.1,0.3,0.3,0.5,0.6,0.4
					C37.1,85.6,37.3,85.3,37.3,85L37.3,85z M38.9,85.9c-0.1-0.4-0.5-0.6-0.8-0.6c-0.4,0.1-0.6,0.4-0.6,0.8c-1.1,0-3,0.3-4.2,1.6
					c1.2-0.7,3.1-1.4,4.2-1.6c0.1,0.4,0.5,0.6,0.8,0.5C38.7,86.7,38.9,86.3,38.9,85.9L38.9,85.9z M36,72c-2.6,1.1-3.7,4.3-2.4,6.6
					C34.7,76.9,37,76.6,36,72z M33.5,78.5c-0.3-1.3,0.5-4.7,1.6-5.4C34.4,74.8,34.1,76.3,33.5,78.5z"/>
				<path class="st0" d="M33.4,67.2c-0.8,0.3-2,1.5-2.5,3c0.2,0.2,0.4,0.5,0.5,0.7c0.3-1.1,0.9-2.4,1.5-2.9c-0.4,0.7-1,2.2-1.3,3.5
					c0.3,0.7,0.4,1.4,0.4,2C33.6,72.1,34.2,69.6,33.4,67.2z M48.8,89.5c3.2,2.4,5.1,5.8,5.5,8.5c-0.4-0.3-1.2-0.6-1.6-0.5
					c-0.4-2.9-1.9-5.2-4.3-7.1C48.5,90,48.7,89.7,48.8,89.5z M45.8,88.7c0.2-0.3,0.8-0.3,1.1-0.1c-0.2,0.4-0.2,1-0.1,1.4
					C46,89.8,45.8,89,45.8,88.7z M47,88.6c0.4,0,0.6-0.3,0.7-0.5s0.3-0.4,0.3,0c0,0.3,0,0.5-0.2,0.6S47.3,88.8,47,88.6z"/>
				<path class="st0" d="M47.2,89.3c0,0.2-0.1,0.5-0.3,0.7c-0.1,0.2-0.3,0.3-0.4,0.4c0.2,0.2,0.5,0.2,0.7,0.2s0.3,0,0.2-0.1
					C47.4,90.1,47.3,89.5,47.2,89.3z"/>
			</g>
		</g>
	</g>
</g>
</svg>
