<svg version="1.1" id="Layer_1" xmlns="http://www.w3.org/2000/svg" x="0" y="0" viewBox="0 0 500 500" xml:space="preserve"><style>.st0{fill:#fff}.st1{fill:#b03c3e}.st3{fill:#015589}.st4{fill:#00578e}.st5{fill:#0276a5}</style><switch><g><path class="st0" d="M28.4 252.8c0-122.4 99.2-221.5 221.5-221.5 122.4 0 221.5 99.2 221.5 221.5S372.3 474.3 250 474.3c-122.4 0-221.6-99.2-221.6-221.5"/><path class="st0" d="M479.9 249.7c0 127.1-103 230.1-230.1 230.1S19.7 376.8 19.7 249.7s103-230 230.1-230 230.1 102.9 230.1 230"/><path class="st1" d="M389.6 167.1c-2.6.9-5.1 1.6-7.7 2.1 14.3 23.5 22.6 51 22.6 80.5 0 85.4-69.2 154.7-154.7 154.7-85.4 0-154.7-69.2-154.7-154.7 0-30.8 9-59.5 24.5-83.6-2.5-.7-4.9-1.7-7.3-2.8-15.7 25-24.9 54.6-24.9 86.4 0 89.6 72.7 162.3 162.3 162.3 89.6 0 162.3-72.7 162.3-162.3.2-30.2-8-58.4-22.4-82.6M160 123.8c25.3-18.1 56.4-28.8 89.9-28.8 37.5 0 71.8 13.3 98.6 35.5 3-.9 6-1.6 9-2.4-28.6-25.4-66.3-40.7-107.5-40.7-37 0-71.1 12.4-98.4 33.2 1.3.5 2.6.9 3.9 1.5 1.5.5 3 1.1 4.5 1.7"/><path d="M249.9 465.5c-119.2 0-215.8-96.6-215.8-215.8 0-119.2 96.6-215.8 215.8-215.8 119.2 0 215.8 96.6 215.8 215.8 0 119.2-96.7 215.8-215.8 215.8m0-445.8c-127 0-230 103-230 230 0 127.1 103 230.1 230 230.1 127.1 0 230.1-103 230.1-230.1-.1-127.1-103.1-230-230.1-230z" fill="#acadb0"/><path class="st3" d="M194.3 203.6c-3.3-1.7-6.1-3.6-9.2-6.4-9.9-9-12.2-18.5-9.3-29.3 1.7-6.5 4.4-9.7 3.5-16.5-.5-3.9-3.3-7-6-9.6-6.6-6.3-14.4-10.3-26-14.2-7.1-2.4-27.9-8.8-37.1-17.1-2.1 6.1 2.4 14.2 7.6 15.3-4.7.5-8.7 2.9-10.5 5.6 3.5 4.1 10.6 8.3 16.4 8.4-2.7 1.8-6 5.6-7 7.8 5 2.7 13 4.9 19.2 4.5-2.6 2.1-4.8 4.7-6.3 7.1 4.2 1.9 12.3 4.7 20 5.2-2.8 1.4-6.9 6.3-9 9.2 4.3 1.9 13.7 3.1 19.6 3.7-4.2 2.2-8.5 6.6-10.9 10.5 4.2 2 12.2 4.3 18.7 4.1-3.2 3.1-5.3 6.8-6.5 10.4 4.9 1 10.1 1 16.1.2-3.6 4.6-5.1 10.7-5.6 15.1 4.9-.1 11.3-1.2 15.9-4-1 3.7-.8 8.8.8 12.3 1.9-.4 4.1-1.2 6.6-2.5-.4-6.9-.7-14-1-19.8M392.6 121.7c-9.2 8.3-23.8 10.5-39.2 15.6-11.6 3.8-18.8 6.1-29.2 14.3-3 2.4-5.8 5.8-5.5 11.8.4 6.6 1.4 9.5 1.6 18.7.1 6.6-2.1 11.9-4.9 15-2.9 3.3-6.7 6.2-10.1 8-.2 5.6-.5 11.3-.8 17.9 2.4 1.3 5.5 2.5 7.4 3 1.6-3.6 1.8-8.6.8-12.3 4.6 2.7 11 3.8 15.9 4-.5-4.4-2-10.4-5.6-15.1 6 .8 11.2.8 16.1-.2-1.2-3.6-3.3-7.4-6.5-10.4 6.5.2 14.5-2 18.7-4.1-2.4-4-6.8-8.3-10.9-10.5 5.8-.6 15.5-1.7 19.8-3.7-2.1-3-6.4-7.9-9.3-9.3 7.7-.6 15.8-3.3 20-5.2-1.5-2.4-3.7-5-6.3-7.1 7.2-.5 14.2-1.8 19.2-4.5-1.1-2.1-4.4-6-7-7.8 15.5-4.4 15.8-12.1 15.8-18.1"/><path class="st3" d="M327.4 138c-22-15.3-48.7-24.2-77.5-24.2-26.3 0-50.8 7.4-71.6 20.3 5.4 4.2 8.6 8.6 9.4 13.2.7 4 1.1 8.9-1.2 16-2.5 7.5-3.8 15.3 1.7 23.1 5.5 7.8 12.7 11.2 18.7 12.3 7.8-1.4 16.4-2.5 25-3.2 1.1-3.6 4.4-6.8 7.8-9.4 4.8-3.8 3.8-7 2.6-9.6-.9-2-2.6-3.6-5.1-4.9-2.2-1.1-10.1-2-9.9 3.1-1.3-1.8-2.3-4.3-1.6-7.5 1.1-4.4 8.3-5.6 10.1-5.4-1.4-1.2-.5-3.1 2.7-4 3.9-1.1 7.5-1.2 11.1-1.1 7.3.2 8.4 2 12.1 5.3 4.5 4 10.3 5.3 12.7 2.9-1.7 3.8-7 5.8-10.4 5.2 1.7 5.3 2.2 9.8 2.8 15.3.3 2.5.8 6.7 1.5 10.2 9.8.8 19.6 2.2 28.1 3.8 3.5-1 7.2-3.1 10.5-6.9 3.1-3.6 6-8.2 4.8-19.7-.3-3.2-2-11.5-1.7-15.5.5-8.8 7-14.6 17.4-19.3"/><path class="st4" d="M237 162.3c1.3 1 2.1 1.1 2.6 1 0 .2.5.6.6.7.3.3.4.5.5.8.6-.3 2.2-.9 3.7-1.4 1.5-.5 3.6-1.1 3.6-1.1-6.4-1.5-7.4.5-11 0"/><path class="st0" d="M249.8 318.1h-1.5c-.7-4.6-4-7.4-8.9-8.9-3.7-1.1-9-2.9-20.4-6.4-13.2-4.1-20-14.7-20.9-28.1-1.3-18.9-3.2-52.1-3.9-73.3 14.9-3.7 37-6.6 55.6-6.6s40.6 2.9 55.6 6.6c-.7 21.1-2.6 54.4-3.9 73.3-.9 13.4-7.7 24-20.9 28.1-11.4 3.5-16.8 5.2-20.4 6.4-4.8 1.5-8.2 4.3-8.9 8.9h-1.5"/><path class="st5" d="M246.1 269.8l-2.7-1.4-1.8-4.6-4-1.7-4.5-4-2.7 2.9-4 .9-2.1 3.4-3.2 3.4-4.3 2.3-3 5.1-1.7 2.3-2.9 2.3-1.6-1.7-1.7 1.7-2.2 4c-1.1-3-1.8-5.3-2.2-10.1-.6-8.9-1.3-20-1.9-31.5 14.7-3.2 33.3-5.3 48.5-5.4v34.6c-.6-.5-1.3-.8-2-2.5"/><path d="M248.2 286.5h-43.6c.6 1.3 1.4 2.6 2.2 3.8 3.1 4.4 7.6 7.7 13.3 9.4 7.7 2.4 12.6 3.9 16.2 5l4.3 1.3c3.5 1.1 5.9 2.6 7.6 4.4v-23.9" fill="#649342"/><path class="st3" d="M294.2 269.6c1.2-1 2.6-2.1 4.4-2.7.3-4.1.5-8.4.8-12.9-.5.3-1 .7-1.6 1.2-2.1 1.7-4.7 3.8-9.2 3.8-4.3 0-7.1-1.7-9.3-3.1-1.8-1.1-3.3-2-5.4-2-2.4 0-4.4 1.2-6.5 2.5-2.3 1.4-4.9 3-8.1 3-3.3 0-5.7-1-7.6-2.1v12.2c.5.3.9.5 1.3.8 2 1.2 3.6 2.2 6.3 2.2 1.7 0 3.3-1 5.2-2.2 2.6-1.6 5.5-3.3 9.4-3.3 3.7 0 6.2 1.5 8.4 2.8 1.9 1.2 3.6 2.2 6.3 2.2 2.5.1 3.9-1 5.6-2.4M259.1 297.5c-3.3 0-5.7-1-7.6-2.1v15c1.7-1.7 4.2-3.3 7.6-4.4l4.3-1.3c3.6-1.1 8.5-2.7 16.2-5 2.2-.7 4.3-1.6 6.2-2.8-2.8-.5-4.8-1.8-6.6-2.8-1.8-1.1-3.3-2-5.4-2-2.4 0-4.4 1.2-6.5 2.5-2.3 1.3-4.9 2.9-8.2 2.9"/><path class="st5" d="M294.2 250.8c1.4-1.2 3.1-2.5 5.5-3.1.1-1.6.2-3.1.3-4.7-14.7-3.2-33.3-5.2-48.5-5.4v13.1c.5.2.9.5 1.3.8 2 1.2 3.6 2.2 6.3 2.2 1.7 0 3.3-1 5.2-2.2 2.6-1.6 5.5-3.3 9.4-3.3 3.7 0 6.2 1.5 8.4 2.8 1.9 1.2 3.6 2.2 6.3 2.2 2.7.1 4.1-1 5.8-2.4M251.5 276.1v12.8c.5.2.9.5 1.3.8 2 1.2 3.6 2.2 6.3 2.2 1.7 0 3.3-1 5.2-2.1 2.6-1.5 5.5-3.3 9.4-3.3 3.7 0 6.2 1.5 8.4 2.8 1.9 1.2 3.6 2.2 6.3 2.2 2.1 0 3.4-.7 4.7-1.8 2.8-4.1 4.4-9.3 4.8-15.3v-.8c-.1.1-.2.2-.4.3-2.1 1.7-4.7 3.8-9.2 3.8-4.3 0-7.1-1.7-9.3-3.1-1.8-1.1-3.3-2-5.4-2-2.4 0-4.4 1.2-6.5 2.5-2.3 1.4-4.9 2.9-8.1 2.9-3.1.2-5.5-.8-7.5-1.9"/><path class="st3" d="M199.5 239.7c-.7-12.7-1.3-25.6-1.7-35.7 15.5-3.5 35.9-5.8 52-5.8s36.6 2.3 52 5.8c-.4 10.1-1 22.9-1.7 35.7-14.6-3.1-33.8-5.4-50.4-5.4-16.4 0-35.6 2.3-50.2 5.4"/><path class="st0" d="M209.6 212.4l.6-2.8-2.5-1.1 2.7-.3.3-2.8 1.2 2.6 2.7-.6-2.1 1.9 1.4 2.4-2.4-1.4-1.9 2.1M226.6 210.1l-2.3-1.5-2 2 .7-2.7-2.5-1.3 2.8-.1.4-2.8 1 2.6 2.8-.4-2.2 1.7 1.3 2.5M239.3 209.2l-2.2-1.7-2.1 1.9.9-2.7-2.5-1.3 2.8-.1.6-2.7.9 2.6 2.7-.3-2.2 1.7 1.1 2.6M252.1 208.9l-2.2-1.8-2.2 1.8 1-2.6-2.3-1.6 2.8.2.7-2.7.7 2.7 2.8-.2-2.3 1.6 1 2.6M288.3 210.3l-2.4 1.4 1.4-2.4-2.1-1.9 2.7.6 1.2-2.6.3 2.8 2.7.3-2.5 1.2.6 2.7-1.9-2.1M274.5 207.7l-2.2-1.8 2.7.4 1.1-2.6.4 2.8 2.8.1-2.5 1.3.7 2.7-2-2-2.3 1.6 1.3-2.5M261.6 206.6l-2.2-1.7 2.8.3.8-2.6.6 2.7 2.8.1-2.5 1.3.9 2.7-2.1-1.9-2.2 1.7 1.1-2.6M211.5 233l.6-2.7-2.6-1.2 2.8-.3.3-2.8 1.1 2.6 2.8-.5-2.1 1.8 1.4 2.5-2.4-1.5-1.9 2.1M228 230.9l-2.3-1.5-2 2 .7-2.8-2.5-1.2 2.8-.2.5-2.8 1 2.7 2.7-.5-2.2 1.8 1.3 2.5M240.2 230l-2.2-1.6-2.1 1.9.9-2.7-2.4-1.4h2.7l.6-2.8.9 2.7 2.7-.3-2.2 1.7 1.1 2.5M252.5 229.8l-2.2-1.8-2.1 1.8 1-2.6-2.4-1.6 2.8.2.7-2.7.7 2.7 2.8-.2-2.3 1.6 1 2.6M287.3 231.1l-2.4 1.4 1.4-2.4-2.1-1.9 2.7.5 1.1-2.5.3 2.8 2.8.2-2.5 1.2.6 2.8-1.9-2.1M273.9 228.5l-2.1-1.8 2.7.5 1-2.7.4 2.8 2.8.2-2.5 1.2.8 2.8-2-2-2.4 1.5 1.3-2.5M261.6 227.5l-2.3-1.7 2.8.3.9-2.6.5 2.7 2.8.1-2.4 1.4.8 2.6-2-1.9-2.3 1.7 1.2-2.6M217.6 220.8l.6-2.7-2.5-1.2 2.8-.2.4-2.8 1 2.6 2.7-.5-2.1 1.8 1.3 2.5-2.3-1.5-1.9 2M205.4 222.8l.6-2.8-2.6-1.1 2.8-.3.2-2.8 1.2 2.5 2.7-.6-2.1 1.9 1.5 2.5-2.5-1.4-1.8 2.1M234 219.1l-2.3-1.6-2 2 .8-2.7-2.4-1.4 2.7-.1.5-2.7 1 2.6 2.7-.3-2.2 1.7 1.2 2.5M246.2 218.5l-2.2-1.7-2.1 1.9.9-2.7-2.4-1.4h2.8l.7-2.7.8 2.7 2.7-.3-2.2 1.6 1 2.6M258.4 218.7l-2.1-1.9-2.2 1.7 1.1-2.5-2.3-1.7 2.8.3.8-2.7.6 2.7h2.8l-2.4 1.4.9 2.7M293.1 220.8l-2.4 1.3 1.4-2.4-2-1.9 2.7.6 1.2-2.5.2 2.8 2.8.3-2.6 1.1.5 2.8-1.8-2.1M279.8 217.9l-2.1-1.8 2.7.5 1.1-2.6.4 2.8 2.7.2-2.5 1.2.7 2.7-1.9-2-2.4 1.5 1.3-2.5M267.5 216.6l-2.2-1.7 2.8.4.9-2.7.5 2.8 2.8.1-2.5 1.3.8 2.7-2-1.9-2.3 1.6 1.2-2.6"/><path class="st3" d="M396.1 268.5l-11.3 3.5 2.5 1-3.9 2.5c.4-2.3.8-4.6 1.1-6.9l6.2-5.2.1 2.7 7-9.5-10.7 4.9 2.7.7-4.9 4.1c.3-2.8.6-5.7.8-8.6l6.1-6.7.5 2.7 5.6-10.3-10 6.3 2.7.3-4.9 5.2c.1-1.8.1-3.6.1-5.4 0-13.6-2-26.7-5.7-39-6.2.6-12.3-1.4-15.3-2 7.9 4.6 10.6 9.6 11.8 15.4-6.3 1.4-14.7-.7-19.3-4.3 4.5 4 7.4 10.2 7.6 16.6-6.5.3-12.5-2.7-16.9-7.1 2.8 3.2 6.4 11.1 5.6 16.8-5.4-.6-11.8-4.1-15.3-8.4 2.9 6.4 4.2 11.5 3.9 17.2-5.4-1-9.5-2.5-14.3-7.2 2.3 5.8 3.2 11.6 2.7 16.4-6.2-2.2-10.4-4.7-13.9-10.6 1.9 5.2 3.1 12 1.8 15.9-5.3-1.6-8.8-4.7-11.5-10.1 2.7 5.7 2.4 12.4 1.5 15.8-2.2-.4-5.1-2-6.6-3.7-.1 1-.1 2-.2 3-.3 3.9-1 7.5-2.3 10.8.4.5 1.5 1.7 1.5 1.8 2.8 3 6.6 5.8 9.6 6.8-1.3.2-3.1 1.3-4.9 1.5 2 2.2 6 2.7 8.5 5.3-1.9.2-2.4 1.6-4.8 1.4 4.5 3.5 8.6 3.6 10.9 3.9.9.1 3.9.4 5.9.1 2.7-.4 5.5.9 6.6 1.6 1.7 1 1.6 3.3 1.2 4.4-.2.7-.5 1.5-1.7 2.2-.7.2-1.2.3-.5-.3.7-.5 1.2-3.4-.3-4.5-1.1-.8-2.7-1.5-4.5-1.4-2 .1-5.1.3-6.6.1-1.4-.1-2.2 1.7-2.4 2.4-.5 1.8-1 4-3.7 2.9-3.2-1.8-7.8-1.7-13-3.8.8 1.6.4 3 1.2 4.8-4.7-1.1-5.9-3.5-10.3-5.1.7 1.6.5 2.9 1.5 4.4-3.8-.7-7.3-4-12.5-5.4-.2 0-.3.1-.5.1-1.9.6-3.6 1.1-5.2 1.6 3.7 4.2 6.7 9.3 8.2 15.5 0 0-2.6.1-6.5-1.3 1.1 3.4 1.8 7 1.8 10.9 0 0-2.9-.5-6.9-3 .4 3.7.2 7.5-.5 11.5 0 0-3.4-1.4-7.4-5.5-.5 3.8-1.4 7.7-3.1 11.5 0 0-3.1-2.1-6.2-7-1.3 3.8-3.1 7.6-5.7 11.1 0 0-3.4-3.5-5.6-10.7-3 4.6-5.9 6.5-5.9 6.5-1.6-3.8-2.6-7.7-3.1-11.5-4 4.1-7.4 5.5-7.4 5.5-.8-3.9-.9-7.8-.5-11.5-4 2.5-6.9 3-6.9 3 .1-3.9.8-7.5 1.9-10.9-3.9 1.3-6.4 1.3-6.4 1.3 1.5-6.3 5.6-12.9 8.4-15.8-1.4-.4-2.8-.9-4.4-1.4-.2 0-.3-.1-.5-.1-5.2 1.4-8.7 4.8-12.5 5.4 1-1.5.8-2.8 1.5-4.4-4.4 1.6-5.6 3.9-10.3 5.1.8-1.8.5-3.2 1.2-4.8-4.3 2.1-10.3 3.6-12.9 4.1-2.9.6-3.1-3.7-4-4.7-.4-.4-2.7-.6-3.7-.4-1.4.2-4.2.1-6.3.1-2.1 0-3.5.6-4.6 1.4-1.5 1.1-.8 4.1-.1 4.6.7.5.3.5-.4.3-1.2-.6-1.6-1.5-1.8-2.2-.3-1.2-.4-3.4 1.3-4.4 1.1-.6 3.9-2 6.6-1.6 1.9.3 4.9 0 5.9-.1.9-.1 7.7-1.3 12.2-4.8-2.3.3-2.8-1.1-4.8-1.4 2.5-2.5 6.5-3 8.5-5.3-1.8-.2-3.3-1.6-4.6-1.8 3.9-2.2 6.6-3.5 9.3-6.5 0 0 1.1-1.2 1.5-1.7-1.3-3.3-2-7-2.3-10.9-.1-.9-.1-1.9-.2-2.9-1 1.1-3 2.2-6.2 3.3-1.5-3.7-.8-10.5 1.1-15.8-2.7 5.4-5.9 8.9-11.1 10.5-1.3-4-.5-10.9 1.3-16-3.5 5.9-7.3 8.9-13.5 11-.5-4.8 0-11.1 2.3-16.9-4.8 4.6-8.9 6.1-14.3 7.2-.3-5.7 1-10.9 3.9-17.2-3.5 4.2-10.7 7.2-16.1 7.7.4-4.9 3.9-11.7 5.9-15.7-5.1 3.7-10.6 6.3-16.5 6.6.7-5.6 3.2-11.7 7.6-16.6-5.1 3.8-12.8 5.8-18.7 5 1.4-6.2 5.2-12.1 10.3-15.4-3 .6-8.3 1.8-14.5 1.2-3.6 12.2-5.6 25.1-5.7 38.4-3.1-2.4-5.2-3-7.3-5.1.4 2.9.8 4.5 1.1 8 .6 6.4 3 10.1 7 12.4.2 1.8.4 3.7.7 5.5-3-1.9-7-3.1-12.3-3 3.2 10.5 7.8 11.2 14 12.2.2 1 .4 1.9.7 2.9-3.3-.9-7.2-.9-11.7.4 3.1 4.8 7.4 7.7 14.3 8.8v.1c-4.2-.3-8.8.3-12.4 2.1 5.2 4.5 10.3 6.2 15.2 5.7.2.6.5 1.3.8 1.9-3.9 1-7.3 3-9.2 4.9 4.1 1.3 8.2 2 12 1.6 0 .1.1.2.1.3-2.2 1.7-4.1 4.4-5.3 8.7 2.9-.7 5.9-.9 8.8-1.8l1.8 3.3c-1.6 3-2.1 6.7-1.2 10.8 2.5-.6 4.5-1.6 6.2-2.8.6.9 1.2 1.7 1.8 2.6-.6 4.7.5 9.5 3.3 12.7 1.1-1.3 2-2.5 2.8-3.7 6.1-9.4 2.4-16.1 2.6-22.2 0-.1.1-.2.1-.4.5 7.2 6.8 14.4-.6 23.1-.1.2-.3.3-.4.5 24.9 29 61.9 47.3 103.1 47.3 58.5 0 108.4-37 127.6-88.8l6.2-2.7-.5 2.7 8.9-7.7-11.5 2.4 2.4 1.3-4.8 1.9c.8-2.4 1.6-4.8 2.3-7.3l6.8-3.7-.2 2.7 8.2-8.5-11.3 3.4 2.5 1-5.4 3c.7-2.7 1.4-5.3 1.9-8.1l5.1-3.3-.2 2.7 8.1-7.9"/><path class="st0" d="M178.2 318.1c11.1 8.3 17.4 19.9 19 29.2-1.4-1-4-2.1-5.6-1.8-1.4-9.8-6.6-17.8-14.6-24.2.3-1.5.8-2.5 1.2-3.2M169.7 326.8c2.6 1 4 .7 4.6-.3 1.4-2 .7-4.6-.2-5.1.2.8.2 1.7 0 2.6-.1.8-.5 2.1-2 1.9-.8-.1-2.2-.5-3.1-1-.6-.4-.6-1.5-.3-2.3.2-.4.4-1.1.9-1.5-.9.2-1.4.7-2.1 1.2-.7.5-1.7.7-2.3 0-.7-.8-1.2-1.4-1.4-2-.6-1.4 1.2-2.5 2.3-3-1.8 0-2.2.7-3.7.5-1.5-.3-1.9-2.7-1.9-3.5 0-.6.7-1.1 1.6-1.3.8-.2 1.8-.1 2.3-.1-.1-.4-.1-.8-.1-1.3-1.5-.3-4.4.2-5 1-.7 1.1-.5 1.6 0 3.5.5 1.8 1 2.4 2.2 2.6.3 0 .9.1 1.6-.1-.4.2-.6.4-.8.9-.2.5-.5 1.3.9 3 1.2 1.5 2.5 2.1 3.5 1.5.6-.3.8-.7 1.1-1-.2.4-.3.8-.4 1.3-.2 1.3 1 1.9 2.3 2.5"/><path class="st0" d="M167.8 315.2c.8-.9 2.6-1.1 3.6-.4-.7 1.3-.8 3.5-.4 4.6-2.6-.4-3-2.8-3.2-4.2M171.9 315.1c1.5-.1 2.1-.9 2.4-1.6.3-.7 1.1-1.2 1.1-.1 0 1.1 0 1.6-.6 1.9-.7.3-1.8.4-2.9-.2M172.7 317.5c-.1.8-.4 1.6-.9 2.3-.4.6-.9.9-1.4 1.3.7.5 1.7.8 2.5.8s.9-.2.8-.5c-.2-1.4-.7-3.3-1-3.9M327.1 313.9c.7 1.3.8 3.5.4 4.6 2.6-.4 3.1-2.9 3.2-4.2-.8-1-2.6-1.1-3.6-.4M326.6 314.1c-1.5-.1-2.1-.9-2.4-1.6-.3-.7-1.1-1.2-1.1-.1 0 1.1 0 1.6.6 1.9.7.4 1.8.5 2.9-.2M326.8 318.9c-.5-.7-.8-1.5-1-2.3-.3.6-.9 2.5-1 3.9 0 .3 0 .4.8.5.8 0 1.8-.3 2.5-.8-.4-.4-.9-.7-1.3-1.3"/><path class="st0" d="M372.3 277.3l2.6.7-39.8 31.5-.9.7h-.2c0 .5 0 .9-.1 1.3.6 0 1.3 0 2 .2.9.2 1.6.8 1.6 1.4 0 .8-.5 3.2-2 3.4-1.5.2-1.8-.5-3.7-.6 1.1.6 2.9 1.7 2.2 3.1-.3.6-.7 1.1-1.5 2-.6.6-1.7.5-2.3-.1-.7-.6-1.2-1-2.1-1.3.5.5.7 1.1.9 1.5.3.9.3 1.9-.3 2.3-.9.5-2.3.9-3.1 1-1.5.1-1.8-1.2-1.9-1.9-.2-1-.2-1.8.1-2.6-.9.4-1.7 3.1-.3 5.1.6.9 1.9 1.4 4.6.4 1.4-.5 2.5-1 2.3-2.5-.1-.4-.2-.9-.4-1.3.3.3.5.7 1 1 1 .6 2.2 0 3.5-1.4 1.5-1.7 1.2-2.5 1-3-.2-.5-.4-.7-.8-.9.7.3 1.3.2 1.6.2 1.2-.1 1.6-.8 2.2-2.6.6-1.9.8-2.4.1-3.5-.3-.4-1.2-.8-2.3-1l39.5-31.2.1 2.7 7.1-9.4-10.7 4.8M351.1 287l28.1-35.5.7 2.6 4.7-10.8-9.4 7.1 2.7.1-25.4 32.2c-2 3-4.1 6.2-6.1 9.2 1.6-1.5 3.1-3.2 4.7-4.9"/><path class="st0" d="M347.7 297.6l7.2-5.7 23.4-21.6.3 2.7 6.3-10-10.4 5.6 2.7.5-23.5 21.7c-2 2.4-4 4.6-6 6.8M373.7 292.5L340.8 309c-.6.5-1 .8-1.3 1.1l.6.6c.1.1.1.2.2.3l34.2-17.1-.5 2.7 8.9-7.8-11.5 2.5 2.3 1.2M323.9 327.4c-.5-.2-.9-.4-1.3-.8l-5.9 12.2-2.2.7-7 13.4 3.4-1 1.2 3.3 6.6-13.5-.8-2.2 6-12.1"/><path class="st0" d="M346.9 304.2c2.3-1.1 4.9-2.4 7.5-3.8l21.9-14.3-.1 2.7 7.9-8.7-11.2 3.8 2.6 1-23.8 15.6c-1.7 1.2-3.3 2.5-4.8 3.7M321.3 324.1c-.2-.6-.2-1.3-.2-2l-7.8 8.5-2.3.2-.2.2-10.9 10.9h.6l2.7-.1.5 2.7 9-11.8 1.7-.4 6.9-8.2M335.7 307.1c1-.8 2.3-1.8 4-3.1l38.4-42 .5 2.7 5.5-10.4-9.9 6.4 2.7.3-40.2 44c-.3.7-.7 1.4-1 2.1M301.3 335.8l14.3-10.1c1.6-1.8 3.4-3.7 4.1-4.4l-17.9 11.8-2.2-.5-1.3.8-11.5 7.2 3.2.7.4 2.4 9.3-8 1.6.1M289.4 337.1l5.7-3.6 5.4-3.6 1.8.3s13-8 16.2-10.1c.2-.1.3-.2.3-.2s.1 0 .1-.1l-17.1 8.5-2.2-.7-13.6 6.5 3.1 1.1.3 1.9M354 258.1l2.7-.5-24.6 49.8c.2.1.4.2.5.3.3.2.5.4.7.6l24.7-50.1 1.3 2.4 2.4-11.5-7.7 9M356.9 266.5l2.7-.1-15.5 23.5c-1.8 3.7-3.6 7.2-5.1 10.4.1-.1.2-.2.2-.3l21.6-32.7 1 2.6 3.8-11.2-8.7 7.8M130.6 296c.3 0 .3 0-.1-.1-4.1-2.3-7-3.1-12.7-2.3 5.3.4 9 1.1 12.8 2.4M133.1 324.9c.6-3.9 3.2-8.6 7.1-11.8 2.7-2.2 4.2-3 2-.7-3.5 3.6-7.4 9.4-9.1 12.5M141.5 335.7c-1.5-3.7-.2-9.7 1.4-13.6 1.1-2.7 3.9-6.8 4.7-7.2-3 4.8-6.3 17.2-6.1 20.8M129.2 283.9c-.3-1.4-1.7-2.3-3.1-2-1.4.3-2.3 1.6-2 3.1.3 1.4 1.7 2.3 3.1 2 1.3-.3 2.3-1.6 2-3.1M151.7 287.5c.1-3.9-.5-7.9 0-12.4-7.7 5.6-10.4 15.5-7.2 22.4-.3-.1-.7-.1-1 0-1.5.3-2.4 1.7-2.1 3.2.3 1.5 1.7 2.4 3.2 2.1 1.5-.3 2.4-1.7 2.1-3.2-.2-.7-.6-1.3-1.2-1.7-1.3-6.1-.2-13.7 3-16.9-1 3.8-2.8 11.8-1.6 19.2 1.3-1.4 2.2-2.8 2.9-4.2.1 1.2.4 2.4.9 3.6.2-5.9 2.1-11.7 8.2-15.7-4.5 5.7-7 12.3-7.6 17.3 3.3-4.1 10.6-5.4 11.2-21.5-3.7 1-8.2 3.8-10.8 7.8M156.8 304.1c-.3-1.5-1.8-2.5-3.3-2.2-1.5.3-2.5 1.8-2.2 3.3.3 1.5 1.8 2.5 3.3 2.2 1.5-.3 2.5-1.8 2.2-3.3M155.8 312.6c-.3-1.5-1.8-2.5-3.3-2.2-1.5.3-2.5 1.8-2.2 3.3.3 1.5 1.8 2.5 3.3 2.2 1.6-.3 2.5-1.8 2.2-3.3"/><path class="st0" d="M139.6 271.2c-5.7 4.8-7.3 10.8-6.7 16h-.7c-1.2.2-1.9 1.4-1.7 2.6.2 1.2 1.4 2 2.6 1.7.3-.1.5-.2.7-.3.5 1.5 1.2 2.9 2.1 4.1-.5-1.8-.9-3.7-1.1-5.7v-.7-.1c-.3-4.5.4-9.1 2.9-12.4-.8 4.9-1.9 14.3-.8 20.1 1.5-6.2 10.5-9 2.7-25.3M162.4 307.9c-.2-1.2-1.4-1.9-2.6-1.7-1.2.2-1.9 1.4-1.7 2.6.2 1.2 1.4 1.9 2.6 1.7 1.2-.3 1.9-1.4 1.7-2.6M150.3 307.5c-.2-1.1-1.3-1.8-2.4-1.6-1.1.2-1.8 1.3-1.6 2.4.2 1.1 1.3 1.8 2.4 1.6 1.1-.2 1.8-1.3 1.6-2.4M122.8 279.8c-.2-.9-.9-1.5-1.8-1.5-2.8-3.8-6.9-7.9-13.7-8.6 3.7 1.8 9.3 5.2 13.2 8.7-.9.2-1.5 1.2-1.4 2.1.2 1 1.1 1.7 2.1 1.5 1.1-.2 1.8-1.2 1.6-2.2M122.9 267c-.3-1.3-1.5-2.1-2.8-1.8h-.2c-1.5-6-3-10.7-9.8-15.4 3.4 4.4 7.4 10.7 9.6 15.4-1 .4-1.6 1.5-1.4 2.6.3 1.3 1.5 2.1 2.8 1.8 1.2-.1 2-1.3 1.8-2.6M129.8 290.6c-.2-1-1.1-1.7-2.1-1.5-.5.1-.9.4-1.2.7-6-5.3-10.2-5.4-13.4-5.5 1.9.7 8.8 2.7 13.2 5.8-.2.3-.3.7-.2 1.2.2 1 1.1 1.7 2.2 1.5 1-.2 1.7-1.2 1.5-2.2M134.9 298.1c-.3-1.5-1.7-2.4-3.2-2.1-1.4.3-2.4 1.7-2.1 3.2.3 1.5 1.7 2.4 3.2 2.1 1.4-.3 2.4-1.7 2.1-3.2M138.8 302.7c-.2-1-1.1-1.7-2.2-1.5-.6.1-1.1.5-1.4 1.1-5.2-.7-11 0-15.8 2.7 5.4-1.2 11-2.4 15.6-2.4-.1.2-.1.5 0 .8.2 1 1.1 1.7 2.2 1.5 1.1-.2 1.7-1.2 1.6-2.2M144.2 305.9c-.3-1.3-1.5-2.2-2.9-1.9-1.3.3-2.1 1.5-1.9 2.8h-.2c-3.9-.2-10.4.9-14.3 5.6 4.1-2.4 10.5-4.9 14.4-5.4h.1c.3 1.2 1.6 2 2.8 1.8 1.4-.3 2.2-1.6 2-2.9"/><path class="st3" d="M429.9 188.8c8-3.5 11.6-12.5 8.3-20.2-3.4-7.7-12.4-11.1-20.4-7.6-8 3.5-11.7 12.4-8.3 20.2 3.3 7.8 12.4 11.2 20.4 7.6m-9.5-21.8c6.3-2.8 13.6-1.5 15.4 2.7 1.8 4.2-2.1 10.4-8.5 13.2-6.4 2.8-13.7 1.5-15.5-2.7-1.8-4.2 2.2-10.4 8.6-13.2zM418.7 209.7l-3.1-12.1 1.9-.4.9 3.3 25.6-6.4-.9-3.4 1.9-.5 4.6 18.3 1.3-.3.6 2.4-7.1 1.8-.6-2.4 3.2-.8-2.3-9.2-10.5 2.6 1.8 7.1 3-.7.7 2.4-8.8 2.2-.7-2.4 3.2-.8-1.8-7.1-11.8 3 .8 3-1.9.4"/><path class="st4" d="M60.8 177.3l-1.1 3.7 16.5 4.9c5 1.5 7.6 4.1 8.2 8.4.3 2.2.1 4.5-.5 6.8-2.1 7.1-7.4 10.6-13.5 8.8l-17.8-5.3-1 3.3-1.8-.5 3.7-12.3 1.8.5-1 3.3 16.4 4.9c4.4 1.3 6.7 1.1 8.6-.8.8-.9 1.5-2.1 1.9-3.4 1.6-5.3-.6-9.3-6-10.9l-16.3-4.9-1.1 3.6-1.9-.6 3-10.2 1.9.7"/><path class="st3" d="M89.9 184.4c-.7 1.6-2.5 2.3-4 1.6-1.6-.7-2.3-2.5-1.6-4 .7-1.6 2.5-2.3 4-1.6 1.5.7 2.2 2.5 1.6 4M95.6 171.4l-1.2 2.2-7.2-4 1.2-2.2 3 1.7c2.5-1 3.7-2.1 4.8-4 1.4-2.5.9-5.1-1.2-6.3-1.8-1-3.7-.6-8.2 1.8-4.7 2.5-5.4 2.8-7.1 3.1-1.7.3-3.6 0-5.4-1-4.4-2.5-5.5-7.3-2.8-12.2.9-1.6 1.8-2.7 3.3-3.8l-1.2-.7 1.2-2.2 6.8 3.8-1.2 2.2-2.8-1.5c-2 1.1-3 1.9-3.9 3.4-1.2 2.1-.6 4.5 1.3 5.6 1.6.9 3.1.5 7.7-1.9 2.2-1.2 3.6-1.9 4.2-2.2 1.2-.6 2.5-.9 4-1 1.7-.1 3.2.3 4.7 1.2 4.6 2.6 5.9 7.7 3.3 12.4-1.3 2.3-2.7 3.7-4.8 5l1.5.6M107.6 150.6c0 1.7-1.3 3-3 3s-3-1.3-3-3 1.3-3 3-3 3 1.3 3 3M178.5 91.6l-19.4 10-.8-1.7 3.1-1.6-12.1-23.5-3.1 1.6-.9-1.7 16.8-8.6-.6-1.2 2.2-1.1 3.3 6.5-2.1 1.1-1.5-2.9-8.5 4.3 4.9 9.6 6.5-3.3-1.4-2.8 2.2-1.2 4.1 8.1-2.1 1.1-1.5-2.8-6.5 3.3 5.2 10.1 8.8-4.5-1.6-3.1 2.2-1.1 2.8 5.4M197.2 84.9l-12.6 4.2-.6-1.8 3.3-1.1-8.3-25.1-3.3 1.1-.6-1.8 13.2-4.4c5.4-1.8 10 .3 11.7 5.3 1.6 4.7-1.3 10-6.4 11.7-.7.2-1.2.4-2.4.5l-.7-2.1c.6-.1.8-.1 1.2-.3 3-1 3.9-3.7 2.6-7.5-1.3-4.1-3.7-5.7-6.8-4.7l-2.6.9 8.1 24.5 3.7-1.2.5 1.8M234.5 74.7l-1.9.3-16.2-26.9-2.8.5-6.6 30.9-2.8.5.3 1.9 9.3-1.6-.3-1.9-3.6.6 1.7-7.8 11-1.9 4.1 6.8-3.2.5.3 1.9 11-1.9-.3-1.9m-22.3-6.5l2.6-12.1 6.2 10.5-8.8 1.6zM266.1 74.7h-1.9c-.9 0-1.5-.4-2.5-2l-6.5-10c4.3-1.3 6.4-4 6.4-8.1 0-2.4-.7-4.4-2.2-5.9-1.6-1.7-3.8-2.3-7.8-2.3h-13.5v1.9h3.5l-.1 26.4H238v1.9h12.8v-1.9h-3.4V63.1h1.2l6.8 10.8c1.6 2.4 2 2.7 4.7 2.7h5.8l.2-1.9m-18.6-25.8h2.9c3.3 0 5.1 2.1 5.1 5.8 0 3.6-2.2 6.1-5.3 6.1h-2.7V48.9zM286.9 80.3l-14.6-2.4.3-1.9 4.4.7 4.3-25.3-7.9-1.3-.6 3.8-2.5-.5 1.3-7.6 2.5.4-.2 1.2 21.4 3.7.2-1.3 2.5.4-1.3 7.7-2.5-.4.7-3.8-7.8-1.3-4.3 25.3 4.4.7-.3 1.9M329.7 94.8L317 89.9l.7-1.8 3.6 1.4 7.1-18.5L311 88l-2.4-24.3-7 18.1 3.6 1.4-.7 1.8-9.9-3.8.7-1.8 3.6 1.4 9.5-24.6-3.6-1.4.7-1.8 7.6 2.9 2.4 23.8 16.7-16.4 8.4 3.3-.7 1.8-3.6-1.4-9.5 24.6 3.6 1.4-.7 1.8M352 109.4l-18.4-11.8 1.1-1.6 2.9 1.9 14.2-22.3-2.9-1.8 1-1.7 15.9 10.2.7-1.1 2.1 1.4-3.9 6.1-2.1-1.3 1.8-2.8-8-5.1-5.8 9.1 6.1 3.9 1.7-2.6 2.1 1.3-4.8 7.6-2.2-1.3 1.8-2.7-6.2-3.9-6.1 9.5 8.4 5.4 1.8-2.9 2.1 1.3-3.3 5.2M142.8 110.7l-3 2.2-14.9-20.3 3.1-2.3c4.3-3.2 11.4-1.2 15.4 4.2 4.3 5.8 4 12.7-.6 16.2m5.9-20.1c-5-6.8-14.4-8.2-21.3-3l-11.5 8.5 1.1 1.6 2.8-2.1 15.6 21.2c.7.3 1.5.6 2.2.8l7.6-5.6c3.6-2.7 5.5-5.6 6.2-9.5.7-4.3-.2-8.5-2.7-11.9zM391 103.1l-1.3 1.4 2.7 2.4-12.9 14.2 3.3-25.6-6.7-6.1-1.3 1.4 2.4 2.2-.5 2.7-16.2 17.8-2.8-2.6-1.3 1.4 7.7 7 1.3-1.4-2.7-2.4 13.5-14.8-2.9 23.5c2.8-.7 5.8-1.5 9-2.4.3-.1.5-.1.8-.2l11.5-12.7 2.9 2.6 1.3-1.4-7.8-7M421.9 136.4l-1 .8-13.2-17.2 1-.8-1.5-2-6.2 4.7 1.5 2 3-2.3 4.8 6.3-20.3 15.5-1-1.4-1.8.9 7.6 9.9 1.5-1.2-2.7-3.5 20.4-15.5 4.8 6.3-3 2.3 1.5 2 6.2-4.7-1.6-2.1M287.9 451.2l-2.5.5-1.8-8.1 2.5-.5.7 3.3c2.4 1.2 4 1.4 6.2.9 2.8-.6 4.4-2.7 3.9-5-.4-2-2.1-3.2-6.8-4.9-5-1.8-5.6-2.1-7.1-3.2-1.4-1.1-2.4-2.7-2.8-4.7-1.1-4.9 1.8-9 7.3-10.2 1.7-.4 3.2-.4 5-.1l-.3-1.3 2.4-.5 1.7 7.7-2.4.5-.7-3.1c-2.1-.8-3.4-1-5.1-.6-2.3.5-3.8 2.6-3.3 4.7.4 1.8 1.7 2.7 6.6 4.5 2.4.9 3.8 1.4 4.4 1.7 1.2.5 2.3 1.3 3.4 2.3 1.2 1.2 1.9 2.6 2.3 4.3 1.1 5.1-1.8 9.5-7.1 10.6-2.6.6-4.6.4-6.9-.3l.4 1.5M334.5 436.5l-20.3 8-.7-1.8 3.2-1.2-9.6-24.6-3.3 1.2-.7-1.7 17.6-6.9-.5-1.2 2.3-1 2.7 6.8-2.3.9-1.2-3-8.8 3.4 3.9 10.1 6.8-2.7-1.1-2.9 2.3-.9 3.3 8.4-2.3.9-1.2-3-6.8 2.7 4.1 10.6 9.3-3.7-1.2-3.1 2.3-.9 2.2 5.6M365 417.9c-2.6 3.2-4.4 4.9-7.4 6.7-8.3 5-17.5 3-22.3-4.8-4.7-7.7-2.3-17.1 5.6-21.8 2.5-1.5 4.5-2.3 7.4-2.7l-1-1.7 2.2-1.3 4.3 7-2.2 1.3-1.5-2.5c-3.2-.2-4.7.1-6.8 1.4-5.4 3.3-6.5 10.2-2.5 16.7 3.9 6.4 11 8.8 16.5 5.5 2-1.2 3.1-2.5 4.3-4.7l-1.8-3 2.2-1.3 3 5.2M378.8 370.6l-2.8 2.6 11.6 12.7c3.5 3.8 4.4 7.4 2.7 11.4-.9 2-2.2 3.9-3.9 5.5-5.5 5-11.8 5.2-16.1.6l-12.5-13.7-2.6 2.4-1.3-1.4 9.5-8.7 1.3 1.4-2.5 2.3 11.5 12.6c3.1 3.4 5.2 4.4 7.7 3.8 1.2-.3 2.4-1 3.4-1.9 4.1-3.7 4.2-8.3.5-12.4l-11.5-12.6-2.8 2.6-1.3-1.5 7.9-7.2 1.2 1.5M430.3 343.9l-6.1 11.3-1.7-1 1.7-3-23.2-12.6-1.7 3.1-1.7-1 6.1-11.2 1.7.9-1.6 3L427 346l1.6-3 1.7.9M442 316.4l-5.2 13.9-1.8-.7 1.6-4.2-24-9-2.8 7.4 3.6 1.3-.9 2.4-7.3-2.7.9-2.4 1.2.5 7.6-20.4-1.2-.4.9-2.4 7.3 2.8-.9 2.3-3.5-1.3-2.8 7.4 24 9 1.5-4.1 1.8.6M450.1 282.7l-2.4 12.6-1.9-.4.7-3.3-12.5-2.5-15.2 6.3-.6 2.9-1.8-.4 2.4-12.6 1.9.4-.6 3.3 11.1-4.5-8.7-7.9-.8 3.8-1.9-.3 2.1-10.5 1.9.4-.7 3.2 10.9 9.9 13.6 2.7.7-3.4 1.8.3M387.5 360.1l1.7-2.3c1.9-2.6 4.8-2.9 7.7-.7 2.9 2.2 3.6 5.4 1.8 7.9l-1.6 2.2-9.6-7.1m31.8.3l-1.1 1.5c-.5.7-1.2.9-3.1.8l-11.9-.7c1.5-4.3.6-7.5-2.7-10-2-1.5-4-2-6.1-1.7-2.3.3-4.1 1.8-6.5 4.9l-8.1 10.9 1.5 1.1 2.1-2.8 21.2 15.7-2.1 2.8 1.5 1.1 7.7-10.3-1.6-1.1-2 2.8-9.3-6.9.7-1 12.7.9c2.9.2 3.4 0 5-2.2l3.5-4.7-1.4-1.1zM56 311.1l-3-12.5 1.8-.4.9 3.3 11.7-2.9-3.6-14.4-11.7 2.8.8 3.4-1.8.4-3.1-12.5 1.9-.4.8 3.4 25.7-6.3-.9-3.4 1.9-.4 3.1 12.4-1.9.5-.8-3.4-11.3 2.8L70 298l11.3-2.8-.8-3.3 1.9-.5 3 12.5-1.9.5-.8-3.4-25.6 6.2.8 3.4-1.9.5M83.4 339.7c8-3.6 11.5-12.6 8-20.3-3.5-7.7-12.6-10.9-20.5-7.3-8 3.6-11.5 12.6-8 20.3 3.4 7.7 12.5 11 20.5 7.3m-9.9-21.6c6.3-2.9 13.6-1.7 15.5 2.5 1.9 4.2-2 10.5-8.3 13.4-6.3 2.9-13.6 1.7-15.5-2.5-1.9-4.3 1.9-10.5 8.3-13.4zM95 383.3l-8-11 1.6-1.2 2.2 3.2 16.1-11.7-23.9 4.9 11.1-21.7-15.7 11.4 2.3 3.1-1.6 1.1-6.2-8.6 1.6-1.1 2.2 3.1 21.4-15.5-2.3-3.1 1.6-1.1 4.8 6.5-10.9 21.3 22.9-4.7 5.3 7.3-1.6 1.2-2.2-3.2L94.3 379l2.3 3.2-1.6 1.1M118.9 406.7L102.8 392l1.3-1.5 2.6 2.4 17.9-19.4-2.6-2.4 1.3-1.4 13.9 12.8.9-.9 1.8 1.6-4.9 5.4-1.8-1.6 2.2-2.5-7-6.4-7.3 7.9 5.4 5 2.1-2.3 1.8 1.6-6.1 6.7-1.8-1.7 2.1-2.3-5.4-5-7.6 8.3 7.3 6.8 2.3-2.5 1.8 1.7-4.1 4.4M146.2 425.5l-18-12.1 1.1-1.6 2.9 1.9 14.7-21.9-2.9-1.9 1.1-1.6 10.7 7.1-1.1 1.6-2.9-1.9-14.3 21.3 8.1 5.4 1.9-2.8 2.1 1.4-3.4 5.1M179.2 439.5l-1.8-.8 1.8-31.4-2.5-1.2-22.9 21.8-2.6-1.2-.8 1.8 8.6 3.9.8-1.8-3.3-1.5 5.8-5.5 10.1 4.6-.5 7.9-2.9-1.3-.8 1.7 10.2 4.6.8-1.6m-14.7-17.9l9-8.5-.8 12.2-8.2-3.7zM210.9 450.3l-3.1-.7-10.3-25.6-4.6 19.5 3.5.8-.5 1.9-10-2.4.4-1.9 3.7.9 5.6-23.4-.9-2.6-3.2-.8.5-1.8 8.8 2.1 9.6 24 4.4-18.7-3.5-.8.5-1.9 10 2.4-.4 1.9-3.8-.9-6.7 28M249.1 437.7c-.3 7.2-4.8 12.5-10.6 12.3l-3.7-.1.9-25.1 3.9.1c5.3.2 9.7 6.1 9.5 12.8m-8.4-15.3l-14.3-.5-.1 1.9 3.5.1-.9 26.4-3.5-.1-.1 1.9 14.2.5c4.5.2 7.8-1 10.8-3.6 3.2-2.9 5.1-6.8 5.2-11 .3-8.5-6.2-15.3-14.8-15.6z"/><path class="st0" d="M126 280.6c-1.1-4.4 1.7-16.1 5.6-18.5-2.6 5.6-3.6 10.9-5.6 18.5m8.3-22.4c-8.8 3.8-12.8 14.7-8.3 22.7 4-5.7 11.7-7 8.3-22.7zM125.4 241.9c-2.8 1.1-6.8 5-8.6 10.2.7.8 1.3 1.6 1.8 2.5 1-3.8 3.1-8.1 5.2-10-1.4 2.4-3.4 7.7-4.3 11.8 1 2.3 1.4 4.7 1.3 7 5.4-4.9 7.3-13.4 4.6-21.5"/></g></switch></svg>